<?xml version="1.0" encoding="UTF-8" standalone="no"?>
<!-- Created with Inkscape (http://www.inkscape.org/) -->

<svg
   width="151.04378mm"
   height="119.98487mm"
   viewBox="0 0 151.04378 119.98487"
   version="1.1"
   id="svg1"
   xml:space="preserve"
   inkscape:version="1.4.2 (f4327f4, 2025-05-13)"
   sodipodi:docname="rough_drawing.svg"
   xmlns:inkscape="http://www.inkscape.org/namespaces/inkscape"
   xmlns:sodipodi="http://sodipodi.sourceforge.net/DTD/sodipodi-0.dtd"
   xmlns:xlink="http://www.w3.org/1999/xlink"
   xmlns="http://www.w3.org/2000/svg"
   xmlns:svg="http://www.w3.org/2000/svg"><sodipodi:namedview
     id="namedview1"
     pagecolor="#ffffff"
     bordercolor="#000000"
     borderopacity="0.25"
     inkscape:showpageshadow="2"
     inkscape:pageopacity="0.0"
     inkscape:pagecheckerboard="0"
     inkscape:deskcolor="#d1d1d1"
     inkscape:document-units="mm"
     inkscape:zoom="1.0396254"
     inkscape:cx="695.4428"
     inkscape:cy="561.25985"
     inkscape:window-width="2560"
     inkscape:window-height="1369"
     inkscape:window-x="-8"
     inkscape:window-y="-8"
     inkscape:window-maximized="1"
     inkscape:current-layer="layer1"><inkscape:page
       x="0"
       y="-3.529152e-15"
       width="151.04378"
       height="119.98488"
       id="page2"
       margin="0"
       bleed="0" /></sodipodi:namedview><defs
     id="defs1"><linearGradient
       id="linearGradient1"
       inkscape:collect="always"><stop
         style="stop-color:#ffffff;stop-opacity:1;"
         offset="0"
         id="stop1" /><stop
         style="stop-color:#ffffff;stop-opacity:0;"
         offset="1"
         id="stop2" /></linearGradient><linearGradient
       inkscape:collect="always"
       xlink:href="#linearGradient1"
       id="linearGradient2"
       x1="100.99415"
       y1="120.34301"
       x2="101.12018"
       y2="136.12193"
       gradientUnits="userSpaceOnUse"
       gradientTransform="translate(-1.781491,2.7994859)" /></defs><g
     inkscape:label="Layer 1"
     inkscape:groupmode="layer"
     id="layer1"
     transform="translate(-24.135533,-35.664203)"><path
       style="mix-blend-mode:lighten;fill:url(#linearGradient2);fill-opacity:1;stroke:none;stroke-width:2.74972"
       d="m 99.999219,35.664205 c 12.665441,21.699882 21.769611,46.876157 13.823081,71.298015 8.7456,-2.52425 18.62937,-9.70081 22.29187,-18.188263 1.53222,-3.550745 3.12808,-14.636282 -3.38673,-14.546119 -5.20456,0.07204 -5.01772,7.903365 -10.17477,9.453412 -2.50756,-8.483502 4.87119,-19.848521 14.54782,-14.945847 18.94633,9.599175 -2.64245,32.527487 -10.91016,39.681887 8.10333,0.0671 14.74501,2.22026 22.55345,-1.38319 2.68703,-1.24005 6.97847,-3.70105 5.92859,-7.315757 -1.50201,-5.171479 -6.05939,-2.395201 -6.65611,1.423637 H 142.196 c 0.0192,-2.227849 -0.0165,-4.488223 1.05986,-6.516336 6.16188,-11.605785 23.57101,1.716322 15.92598,12.307396 -1.90509,2.63924 -4.81738,4.18272 -7.52792,5.84943 3.57868,1.16446 19.43713,9.23682 16.73319,0 l -8.00282,-0.72752 c 6.93293,-13.041361 22.53134,4.09891 10.18542,10.18542 1.65649,4.93834 4.81553,10.02486 2.35046,15.27815 -6.09352,12.9857 -29.25832,15.32195 -41.63713,17.15423 -5.18144,0.76695 -10.38384,1.93432 -15.27815,-0.42101 3.73885,-4.71723 9.76108,-4.2291 15.27815,-4.99784 10.17081,-1.41721 29.84791,-3.5299 35.82529,-13.21963 2.41546,-3.91566 -1.43913,-6.96939 -4.54202,-8.791 -6.89834,-4.04982 -14.78501,-6.115 -22.5529,-7.75977 -9.11858,-1.93075 -20.49748,-4.34949 -29.82875,-3.25086 -4.15607,0.48931 -6.363,5.15155 -10.912961,4.90578 -4.128469,-0.22301 -6.283889,-4.44644 -10.185449,-4.90578 -10.1583,-1.196 -22.88655,1.52667 -32.738891,3.91945 -5.783246,1.40453 -25.755366,5.34093 -24.981924,13.72879 0.453127,4.91417 7.975545,7.91324 11.886366,9.41074 8.406867,3.21907 17.309729,4.89813 26.191115,6.17335 5.199674,0.74657 10.292544,0.33236 13.823084,4.78677 -4.89432,2.35533 -10.09671,1.18796 -15.278155,0.42101 -12.378787,-1.83228 -35.543584,-4.16853 -41.637108,-17.15423 -2.417447,-5.15177 0.724552,-10.40047 2.350436,-15.27815 -11.985989,-5.90907 2.555813,-23.06562 10.185443,-10.18542 l -8.00285,0.72752 c -2.575419,9.28076 13.027007,1.20595 16.733221,0 -2.710567,-1.66671 -5.622827,-3.21019 -7.527917,-5.84943 -9.639486,-13.354079 16.809773,-25.481898 16.985811,-5.79106 h -5.82023 c -0.596717,-3.818838 -5.154109,-6.595116 -6.656145,-1.423637 -1.049844,3.614707 3.241539,6.075707 5.928596,7.315757 7.808444,3.60345 14.450126,1.45028 22.553478,1.38319 C 64.812877,101.26289 43.224084,78.334578 62.170421,68.735403 71.84705,63.832729 79.22583,75.197748 76.71822,83.68125 71.56117,82.131203 71.74801,74.299854 66.543471,74.227838 60.028661,74.137648 61.624518,85.223212 63.156746,88.773957 66.819268,97.261438 76.70301,104.43797 85.44859,106.96222 79.17551,87.683307 83.17957,73.04015 90.54132,54.579993 92.98874,48.442885 95.23714,40.376049 99.999219,35.664205 m -0.72752,13.095558 C 93.06233,64.76912 83.75099,82.254143 89.33661,99.686914 c 1.29515,4.042176 4.96353,15.284646 10.662059,14.607886 5.477311,-0.65051 8.547041,-10.27418 9.935631,-14.607886 4.64172,-14.486855 -1.07146,-39.05544 -10.662601,-50.927151 z"
       id="path1"
       sodipodi:nodetypes="ccsscscsscccsccccsscssssssssssscssccccsccsscscsscsccsssc"
       inkscape:export-filename="tiara.svg"
       inkscape:export-xdpi="96"
       inkscape:export-ydpi="96" /></g></svg>
