<?xml version="1.0" encoding="UTF-8"?>
<svg id="Layer_2" data-name="Layer 2" xmlns="http://www.w3.org/2000/svg" xmlns:xlink="http://www.w3.org/1999/xlink" viewBox="0 0 7116.32 2043.39">
  <defs>
    <style>
      .cls-1 {
        fill: #273786;
      }

      .cls-2 {
        fill: none;
      }

      .cls-3 {
        clip-path: url(#clippath);
      }
    </style>
    <clipPath id="clippath">
      <rect class="cls-2" width="7116.32" height="2043.39"/>
    </clipPath>
  </defs>
  <g id="Layer_2-2" data-name="Layer 2">
    <g id="Landis_blue_vector" data-name="Landis blue vector">
      <polygon class="cls-1" points="675.99 2.98 0 2014.24 871.3 2013.81 1021.49 1573.93 692.03 1574.11 1217.81 2.69 675.99 2.98"/>
      <g class="cls-3">
        <path class="cls-1" d="M1747.8,1003.52l-475.97.26,36.28-110.59c41.82-127.51,88.94-225.89,141.35-295.04,52.35-69.16,132.06-130.3,239.04-183.36,106.94-53.03,232.05-79.62,375.2-79.7,171.6-.1,291.1,29.86,358.48,89.87,67.38,60.01,95.53,133.66,84.45,221.03-11.05,87.38-61.26,267.31-150.61,539.76l-271.35,827.38-493.56.27,48.19-146.9c-50.3,58.93-104.75,103.13-163.37,132.59-58.64,29.48-121.87,44.24-189.7,44.3-88.75.02-162.06-24.56-220-73.76-57.93-49.26-59.62-157.12-5.02-323.6l44.41-135.4c40.48-123.39,87.69-207.48,141.74-252.23,54.02-44.73,168.66-96.98,343.93-156.68,187.78-64.71,291.2-108.23,310.26-130.61,19.05-22.33,39.86-67.9,62.38-136.64,28.25-86.13,40.15-142.23,35.75-168.34-4.46-26.06-21.7-39.1-51.83-39.08-34.34.01-59.29,11.02-74.86,32.95-15.57,21.96-38.42,78.9-68.56,170.82l-56.64,172.7h.01ZM1834.39,1229.52c-100.5,58.88-163.76,108.14-189.74,147.9-26.04,39.74-51.26,96.92-75.71,171.48-27.96,85.3-40.37,140.35-37.24,165.22,3.19,24.81,21.5,37.21,55,37.21,31.8-.02,55.69-9.74,71.73-29.25,15.96-19.43,37.57-70.6,64.72-153.4l111.23-339.16h.01Z"/>
        <path class="cls-1" d="M3316.02,364.22l-58.61,151.88c56.68-60.57,116.57-106.02,179.67-136.34,63.1-30.3,129.4-45.5,198.91-45.53,87.05-.04,151.54,20.24,193.48,60.77,41.93,40.55,60.73,91.69,56.44,153.39-4.34,61.68-30.13,164.57-77.38,308.68l-378.91,1155.32-507.35.28,374.42-1141.66c37.23-113.46,56.13-182.61,56.74-207.45.62-24.83-16.24-37.23-50.55-37.22-36.01.01-63.29,14.29-81.87,42.87-18.61,28.58-48.24,104.99-88.99,229.23l-365.45,1114.34-507.35.27,540.65-1648.55,516.15-.27h0Z"/>
        <path class="cls-1" d="M5417.9.39l-663.66,2011.28-510.48.26,39.47-119.55c-65.3,49.84-129.03,87.19-191.12,112.13-62.13,24.88-122.73,37.38-181.69,37.44-79.15.02-141.03-20.43-185.65-61.37-44.57-40.98-66.21-88.38-64.9-142.21,1.36-53.83,22.13-141.62,62.31-263.37l254.54-771.43c41.8-126.74,79.67-216.6,113.56-269.61,33.93-53,87.01-99.61,159.24-139.82,72.19-40.19,149.17-60.35,230.91-60.38,63.16-.04,117.35,11.16,162.61,33.54,45.24,22.39,81.99,55.98,110.17,100.79L4907.43.67l510.47-.27h0ZM4650.81,778.36c19.94-60.46,28.07-101.06,24.38-121.75-3.73-20.68-21.15-31.02-52.32-31.01-30.33.02-53.83,9.32-70.49,27.98-16.69,18.63-35.69,60.24-57,124.87l-266.43,807.47c-22.14,67.1-31.66,111.17-28.49,132.3,3.14,21.14,19.04,31.66,47.69,31.66,32.85-.02,58.63-11.83,77.36-35.46,18.71-23.61,43.3-81.35,73.63-173.28l251.67-762.78h0Z"/>
        <polygon class="cls-1" points="6000.39 362.75 5445.74 2011.29 4909.78 2011.56 5464.43 363.04 6000.39 362.75"/>
        <polygon points="6119.94 0 6009.49 329.17 5477.65 329.53 5586.44 .36 6119.94 0"/>
        <path class="cls-1" d="M7036.39,888.84l-455.84.25,29.75-89.47c25.33-76.18,36.94-124.42,34.78-144.72-2.17-20.25-21.07-30.4-56.74-30.38-28.85.01-53.61,9.32-74.23,27.97-20.61,18.64-37.15,46.61-49.52,83.88-16.81,50.52-25.5,87.58-26.14,111.18-.64,23.59,12.39,49.47,39.13,77.59,26.68,28.15,87.14,69.1,181.28,122.88,125.69,71.15,201.42,138.19,227.18,201.07,25.76,62.93,18.65,154.46-21.27,274.51-44.6,134.18-96.08,235.45-154.44,303.78-58.38,68.36-135.5,121.02-231.35,157.88-95.87,36.89-202.83,55.37-320.76,55.45-130.71.05-235.95-19.76-315.67-59.48-79.71-39.69-125.69-93.5-137.89-161.38-12.26-67.87,4.49-170.56,50.21-308.05l26.42-79.52,455.81-.25-34.7,104.39c-29.45,88.6-42.88,146.17-40.24,172.67,2.68,26.51,20.99,39.72,54.94,39.69,36.49,0,64.89-8.91,85.25-26.72,20.35-17.79,40.04-55.34,59.06-112.46,26.16-78.7,33.17-127.94,21.12-147.82-12.92-19.88-93.08-78.61-240.53-176.24-123.58-82.72-190.69-157.85-201.34-225.33-10.66-67.46-.59-147.59,30.26-240.34,43.8-131.7,93.91-228.81,150.35-291.38,56.45-62.55,132.97-110.79,229.56-144.82,96.56-33.98,201.33-51.04,314.23-51.1,112.03-.06,202.66,13.77,272,41.48,69.28,27.71,117.34,64.32,144.22,109.84,26.87,45.55,38.26,87.78,34.26,126.67-4.03,38.93-19.81,99.8-47.35,182.62l-31.8,95.66Z"/>
      </g>
      <rect class="cls-2" width="7116.32" height="2043.39"/>
    </g>
  </g>
</svg>