<?xml version="1.0" encoding="UTF-8" standalone="no"?>
<!-- Created with Inkscape (http://www.inkscape.org/) -->

<svg
   version="1.1"
   id="svg2"
   xml:space="preserve"
   width="468.91144"
   height="443.99985"
   viewBox="0 0 468.91144 443.99985"
   sodipodi:docname="make717logo_color.ai.svg"
   inkscape:version="1.1.2 (0a00cf5339, 2022-02-04)"
   xmlns:inkscape="http://www.inkscape.org/namespaces/inkscape"
   xmlns:sodipodi="http://sodipodi.sourceforge.net/DTD/sodipodi-0.dtd"
   xmlns="http://www.w3.org/2000/svg"
   xmlns:svg="http://www.w3.org/2000/svg"><defs
     id="defs6" /><sodipodi:namedview
     id="namedview4"
     pagecolor="#ffffff"
     bordercolor="#666666"
     borderopacity="1.0"
     inkscape:pageshadow="2"
     inkscape:pageopacity="0.0"
     inkscape:pagecheckerboard="0"
     showgrid="false"
     fit-margin-top="0"
     fit-margin-left="0"
     fit-margin-right="0"
     fit-margin-bottom="0"
     inkscape:zoom="1.1664583"
     inkscape:cx="279.04984"
     inkscape:cy="243.04341"
     inkscape:window-width="1500"
     inkscape:window-height="1173"
     inkscape:window-x="450"
     inkscape:window-y="78"
     inkscape:window-maximized="0"
     inkscape:current-layer="g8" /><g
     id="g8"
     inkscape:groupmode="layer"
     inkscape:label="make717logo_color"
     transform="matrix(1.3333333,0,0,-1.3333333,-9.7753518,1048.3608)"><path
       id="path20"
       style="fill:#1a2631;fill-opacity:1;fill-rule:nonzero;stroke:none;stroke-width:1.33333"
       d="m 236.75391,6.2226562 c -81.87334,0 -152.943677,46.1059898 -188.763676,113.7500038 2.441334,0.316 4.439079,1.20861 5.955078,2.72461 1.916003,1.91733 3.065219,4.76172 3.449219,8.53906 3.174667,-4.26934 6.816542,-7.48577 10.921875,-9.64844 4.105333,-2.16267 8.730287,-3.24414 13.876953,-3.24414 5.638667,0 10.455172,1.05544 14.451172,3.16211 3.995999,2.108 7.473689,5.40653 10.429689,9.89453 3.06533,-4.26933 6.73457,-7.48577 11.0039,-9.64844 4.2707,-2.16266 9.05848,-3.24414 14.36915,-3.24414 9.03333,0 16.16324,2.61575 21.39257,7.84375 5.22667,5.228 7.8418,12.35729 7.8418,21.39063 v 51.32226 c 0,4.43334 -0.9714,7.74622 -2.91406,9.93555 -1.944,2.188 -4.88679,3.28516 -8.82813,3.28516 -3.832,0 -6.76115,-1.12319 -8.78515,-3.36719 -2.02667,-2.244 -3.03907,-5.52818 -3.03907,-9.85352 v -46.47656 c 0,-4.27067 -1.16356,-7.59718 -3.49023,-9.97851 -2.328,-2.38137 -5.57242,-3.57227 -9.73242,-3.57227 -4.65334,0 -8.34665,1.50691 -11.08399,4.51758 -2.73733,3.01066 -4.10547,7.14244 -4.10547,12.39843 v 43.11133 c 0,4.38 -0.98769,7.6772 -2.95703,9.89453 -1.972,2.21734 -4.89849,3.32618 -8.785152,3.32618 -3.888003,0 -6.790412,-1.09716 -8.705079,-3.28516 -1.917333,-2.18933 -2.875,-5.50221 -2.875,-9.93555 v -46.3125 c 0,-4.324 -1.121234,-7.66486 -3.365234,-10.01953 -2.245333,-2.35333 -5.449375,-3.53125 -9.609375,-3.53125 -4.653333,0 -8.332302,1.50825 -11.042969,4.51758 -2.709333,3.01067 -4.066406,7.14244 -4.066406,12.39844 v 42.94726 c 0,4.38 -0.983078,7.6772 -2.955078,9.89453 -1.970667,2.21734 -4.927808,3.32618 -8.869141,3.32618 -3.888,0 -6.814489,-1.10884 -8.785156,-3.32618 -1.970667,-2.21733 -2.957031,-5.51453 -2.957031,-9.89453 v -48.38281 c -7.402667,21.664 -11.476563,44.87035 -11.476563,69.04102 0,117.91333 95.586674,213.5 213.500004,213.5 66.38133,0 125.68703,-30.29774 164.8457,-77.81641 h -21.98438 c -0.81866,-4.70533 -1.45,-9.18045 -1.88867,-13.42578 -0.44133,-4.244 -0.66015,-8.25764 -0.66015,-12.04297 0,-9.76667 1.38363,-18.24497 4.15429,-25.43164 2.768,-7.184 7.26996,-13.84642 13.50196,-19.98242 9,-8.848 14.96591,-15.81692 17.89257,-20.90625 2.928,-5.088 4.39063,-11.10979 4.39063,-18.06446 h -51.08398 v -19.64062 h 76.38867 v 9.12891 c 0,13.65466 -1.85698,25.11314 -5.57032,34.36914 -3.716,9.25733 -9.34901,17.08127 -16.90234,23.47461 -4.34533,3.73333 -7.63385,8.55231 -9.86719,14.45898 -2.23466,5.90667 -3.35156,12.84943 -3.35156,20.82813 0,4.19466 0.37681,8.68155 1.13281,13.46289 0.25467,1.61333 0.56204,3.17285 0.85938,4.74218 26.15866,-35.43466 41.64258,-79.22896 41.64258,-126.65429 0,-16.516 -1.937,-32.5711 -5.48633,-48.00977 -1.868,0.492 -4.43593,0.74609 -7.75196,0.74609 h -2.54687 -44.3418 c 0.272,7.00667 2.06558,12.34506 5.37891,16.01172 3.31067,3.668 7.9513,5.50196 13.91797,5.50196 2.736,0 5.25602,-0.38239 7.55469,-1.15039 2.29866,-0.76534 4.32417,-1.88657 6.07617,-3.36524 0.43733,-0.38267 1.01394,-0.90321 1.72461,-1.56055 4.05066,-3.66666 7.58308,-5.50195 10.59375,-5.50195 2.68133,0 4.91274,0.86256 6.6914,2.58789 1.77867,1.724 2.66992,3.87331 2.66993,6.44531 0,1.86134 -0.48017,3.70964 -1.4375,5.54297 -0.9587,1.83467 -2.42254,3.709 -4.39454,5.625 -3.83066,3.61334 -8.44393,6.39132 -13.83593,8.33399 -5.39334,1.94266 -11.26457,2.91406 -17.61524,2.91406 -12.91866,0 -23.15432,-4.33634 -30.70898,-13.01367 -7.55467,-8.676 -11.33203,-20.43353 -11.33203,-35.26953 0,-14.616 3.72201,-26.13965 11.16601,-34.57032 7.44534,-8.42933 17.62883,-12.64648 30.54883,-12.64648 7.37333,0 13.87069,1.32793 19.55469,3.89063 C 391.25569,53.362362 319.53257,6.2226564 236.75391,6.2226562 Z m 51.00195,80.2617188 c 3.88667,0 6.82946,1.123188 8.82812,3.367187 1.99734,2.245334 2.99805,5.556881 2.99805,9.935547 v 51.814451 l 23.73047,-26.76758 c 2.35333,-2.736 4.27071,-4.51655 5.74805,-5.33789 1.47733,-0.82133 3.1471,-1.23242 5.00976,-1.23242 2.9,0 5.4441,1.00072 7.63477,2.99805 2.18933,2 3.28515,4.3095 3.28515,6.9375 0,2.628 -2.24442,6.37995 -6.73242,11.25195 l -0.24609,0.2461 -12.39844,13.2207 21.01953,36.12891 c 1.64134,2.68266 2.72281,4.72314 3.24414,6.11914 0.52,1.396 0.7793,2.72375 0.7793,3.98242 0,3.34 -1.06846,6.07627 -3.20313,8.21094 -2.13333,2.13466 -4.87227,3.20312 -8.21093,3.20312 -2.90267,0 -5.40505,-0.62867 -7.51172,-1.88867 -2.10933,-1.25867 -3.93089,-3.25743 -5.46289,-5.9961 l -17.6543,-31.61328 -9.03125,9.77149 v 16.50586 c 0,4.32533 -1.00071,7.60951 -2.99805,9.85351 -1.99866,2.244 -4.94145,3.36719 -8.82812,3.36719 -3.832,0 -6.69208,-1.0952 -8.58008,-3.2832 -1.888,-2.18934 -2.83398,-5.50284 -2.83398,-9.9375 V 99.787109 c 0,-4.488 0.94598,-7.828244 2.83398,-10.017578 1.888,-2.189333 4.74808,-3.285156 8.58008,-3.285156 z m -70.56445,31.859375 c 12.48133,0 22.04855,2.16233 28.69921,6.48633 6.65201,4.32533 9.97657,10.56665 9.97657,18.72265 v 50.74805 c 0,1.80667 0.13877,3.88824 0.41211,6.24024 0.27333,2.35466 0.41015,3.80684 0.41015,4.35351 0,2.848 -0.90365,5.07869 -2.70898,6.69336 -1.80667,1.61467 -4.32536,2.42188 -7.55469,2.42188 -4.43467,0 -7.70779,-1.14922 -9.81445,-3.44922 -2.108,-2.3 -3.18886,-5.91318 -3.24219,-10.83985 -3.012,4.65334 -6.95417,8.2001 -11.82617,10.63477 -4.87333,2.436 -10.53743,3.6543 -16.99609,3.6543 -8.54001,0 -15.1794,-2.43793 -19.91407,-7.3086 -4.736,-4.872 -7.10156,-11.68664 -7.10156,-20.44531 0,-8.212 1.99619,-14.49566 5.99219,-18.84766 3.996,-4.352 10.78523,-7.53912 20.36523,-9.56445 3.668,-0.76667 8.33529,-1.4924 14.00195,-2.17773 5.66535,-0.68267 9.34564,-1.29966 11.04297,-1.84766 1.25867,-0.43733 2.19031,-1.23153 2.79297,-2.38086 0.60134,-1.15067 0.9043,-2.60018 0.9043,-4.35352 0,-3.612 -1.12319,-6.19914 -3.36719,-7.75781 -2.24533,-1.56133 -5.994,-2.3418 -11.25,-2.34179 -2.73866,0 -5.243,0.38372 -7.51367,1.15039 -2.272,0.76666 -4.28511,1.88852 -6.03711,3.36718 -0.60267,0.54667 -1.50632,1.47635 -2.70898,2.79102 -3.77734,4.10533 -7.30842,6.1582 -10.59375,6.1582 -2.73734,0 -5.02214,-0.94403 -6.85547,-2.83203 -1.83467,-1.88933 -2.75,-4.20212 -2.75,-6.93945 0,-5.96667 3.43268,-11.18125 10.30469,-15.64258 6.86933,-4.46133 15.31469,-6.69336 25.33203,-6.69336 z m 15.76562,48.53125 c -3.94133,1.86133 -8.44381,3.32591 -13.50781,4.39258 -5.064,1.068 -7.6778,1.63026 -7.8418,1.68359 -4.16133,1.20534 -7.07481,2.70896 -8.74414,4.51563 -1.67067,1.80666 -2.5039,4.29932 -2.5039,7.47265 0,3.396 1.09253,6.03645 3.2832,7.92578 2.188,1.888 5.25593,2.83399 9.19726,2.83399 6.076,0 10.94919,-1.84892 14.61719,-5.54492 3.66667,-3.69467 5.5,-8.6356 5.5,-14.82227 z m 87.92188,57.6582 h 21.33984 V 355.40625 H 312.00586 V 243.78711 l -25.49609,1.38086 v -13.04102 z m -132.90821,1.37891 h 76.38672 v 9.13086 c 0,13.65467 -1.85893,25.11119 -5.57226,34.36719 -5.54267,13.81333 -3.96306,12.52527 -16.90039,23.47461 -4.34534,3.73333 -7.63386,8.55427 -9.86719,14.46093 -2.23467,5.90667 -3.35156,12.84748 -3.35156,20.82618 0,4.19333 0.37814,8.68155 1.13281,13.46289 0.756,4.78266 1.70003,9.37415 2.83203,13.77148 h -30.9707 c -0.81867,-4.70533 -1.44806,-9.18045 -1.88672,-13.42578 -0.44134,-4.244 -0.66211,-8.25764 -0.66211,-12.04297 0,-9.768 1.38363,-18.24497 4.15429,-25.43164 2.76937,-7.184 7.27129,-13.84642 13.50196,-19.98242 9.00133,-8.848 14.96591,-15.81692 17.89258,-20.90625 2.92666,-5.088 4.39062,-11.11041 4.39062,-18.06641 H 187.9707 Z"
       transform="matrix(0.75000002,0,0,-0.75000002,7.331514,786.27062)" /><g
       id="g122"
       transform="translate(303.80611,679.00561)"><path
         d="M 0,0 C -2.216,-2.362 -3.51,-5.8 -3.88,-10.316 H 22.48 C 22.274,-5.8 21.052,-2.362 18.815,0 16.576,2.36 13.384,3.541 9.238,3.541 5.297,3.541 2.217,2.36 0,0"
         style="fill:#1a2631;fill-opacity:1;fill-rule:nonzero;stroke:none"
         id="path124" /></g><g
       id="g142"
       transform="translate(16.715514,660.02261)"><path
         d="m 0,0 h -9.384 l 0.538,2.432 c 0.113,0.505 13.655,48.592 54.012,86.229 34.943,32.587 73.927,37.336 74.943,37.587 l -21.5,-9 C 98.121,117.03 59.161,99.596 31.122,62.298 5.161,27.766 0.339,1.907 0.293,1.65 Z"
         style="fill:#d48f18;fill-opacity:1;fill-rule:nonzero;stroke:none"
         id="path144" /></g><g
       id="g146"
       transform="translate(233.32411,453.27071)"><path
         d="m 0,0 8.133,4.065 c 0.487,0.218 49.013,22.206 77.052,59.504 25.9,34.452 30.783,60.392 30.829,60.65 l 0.296,1.647 9.381,0.002 -0.538,-2.433 C 125.041,122.931 113.5,72.576 71.141,37.206 34.73,6.803 1.016,0.251 0,0"
         style="fill:#d48f18;fill-opacity:1;fill-rule:nonzero;stroke:none"
         id="path148" /></g></g></svg>
