<svg width="160" height="56" viewBox="0 0 160 56" fill="none" xmlns="http://www.w3.org/2000/svg">
<path d="M32.26 18.8L16.55 9.72998L0.839966 18.8V36.94L16.55 46.01L24.44 41.46V50.56L32.26 55.07V36.94V18.8ZM16.55 36.98L8.65997 32.43V23.32L16.55 18.77L24.44 23.32V32.43L16.55 36.98Z" fill="#CED623"/>
<path d="M118.57 36.9399L134.28 46.0099L149.99 36.9399V18.7999L134.28 9.72992L126.39 14.2799V5.17992L118.57 0.669922V18.7999V36.9399ZM134.28 18.7599L142.17 23.3099V32.4199L134.28 36.9699L126.39 32.4199V23.3099L134.28 18.7599Z" fill="#CED623"/>
<path d="M63.68 18.7998V32.4298L55.7999 36.9798L47.91 32.4298V18.7998H40.08V36.9398L55.7999 46.0098L71.51 36.9398V18.7998H63.68Z" fill="#CED623"/>
<path d="M102.92 18.7998V32.4298L95.0299 36.9798L87.1399 32.4298V18.7998H79.3199V36.9398L95.0299 46.0098L110.74 36.9398V18.7998H102.92Z" fill="#CED623"/>
<path d="M150 5.38001C150 2.34001 152.21 0.26001 154.91 0.26001C157.61 0.26001 159.8 2.34001 159.8 5.38001C159.8 8.42001 157.59 10.5 154.91 10.5C152.23 10.5 150 8.42001 150 5.38001ZM158.76 5.38001C158.76 2.94001 157.1 1.19001 154.91 1.19001C152.72 1.19001 151.04 2.93001 151.04 5.38001C151.04 7.83001 152.73 9.54001 154.91 9.54001C157.09 9.54001 158.76 7.85001 158.76 5.38001ZM153.01 2.67001H154.99C156.08 2.67001 157.04 3.11001 157.04 4.36001C157.04 4.98001 156.65 5.58001 156.05 5.79001L157.25 7.95001H156.05L155.14 6.13001H154.07V7.95001H153V2.67001H153.01ZM154.75 5.30001C155.45 5.30001 155.87 4.99001 155.87 4.42001C155.87 3.93001 155.58 3.56001 154.8 3.56001H154.07V5.30001H154.75Z" fill="#CED623"/>
</svg>
