<svg width="414" height="47" viewBox="0 0 414 47" fill="none" xmlns="http://www.w3.org/2000/svg">
<g filter="url(#filter0_dd_10_629)">
<path d="M3.00214 8.26192V21.7234L5.88375 3.56982C4.17464 4.4381 3.00214 6.21269 3.00214 8.26192Z" fill="#198D00"/>
<path d="M26.1754 7.39844L32.4711 10.335L28.0113 34.0954L42.6116 15.1813V8.2625C42.6116 5.35555 40.2561 3 37.3491 3H15.8384L10.842 26.0886L26.1776 7.39844H26.1754Z" fill="#198D00"/>
<path d="M31.7781 42.611H37.3491C40.2561 42.611 42.6117 40.2554 42.6117 37.3485V30.1382L31.7781 42.6089V42.611Z" fill="#198D00"/>
<path d="M9.67168 38.4351L3.00214 35.3253V37.3492C3.00214 40.2562 5.35771 42.6117 8.26468 42.6117H19.3707L23.7861 20.7441L9.67168 38.4351Z" fill="#198D00"/>
<path d="M42.6138 15.1813L28.0134 34.0954L32.4732 10.335L26.1776 7.39844L10.8421 26.0886L15.8384 3H8.26254C7.40482 3 6.59779 3.20704 5.88162 3.5704L3 21.724V35.3249L9.67166 38.4347L23.7861 20.7438L19.3707 42.6113H31.7781L42.6116 30.1385V15.1813H42.6138Z" fill="white"/>
</g>
<g clip-path="url(#clip0_10_629)" filter="url(#filter1_dd_10_629)">
<path d="M79.3775 37.9895L73.9604 16.7744L68.5845 37.9895H61.5883L52.7383 7.09375H60.1053L65.5292 29.4211L71.4132 7.09375H76.5556L82.3916 29.4211L87.7675 7.09375H95.1756L86.3737 37.9895H79.3775Z" fill="white"/>
<path d="M92.5392 26.7784C92.5392 20.2903 97.3109 15.0586 104.122 15.0586C110.933 15.0586 115.334 20.0637 115.334 27.3826V28.6802H98.7047C99.0754 31.5089 101.348 33.8707 105.145 33.8707C107.047 33.8707 109.683 33.0399 111.118 31.6462L113.713 35.4429C111.489 37.482 107.967 38.5462 104.492 38.5462C97.6817 38.5462 92.5392 33.9599 92.5392 26.7784M104.122 19.7341C100.462 19.7341 98.8832 22.4667 98.6085 24.6912H109.635C109.498 22.5628 108.015 19.7341 104.122 19.7341Z" fill="white"/>
<path d="M118.203 37.9895V7.09375H124.087V18.4908C125.845 16.2183 128.351 15.0648 130.988 15.0648C136.686 15.0648 140.902 19.5138 140.902 26.8327C140.902 34.1515 136.638 38.5525 130.988 38.5525C128.303 38.5525 125.845 37.351 124.087 35.1265V37.9963H118.203V37.9895ZM129.134 33.3139C132.56 33.3139 134.832 30.7187 134.832 26.8258C134.832 22.933 132.56 20.2965 129.134 20.2965C127.232 20.2965 125.056 21.4088 124.087 22.8918V30.8148C125.062 32.2497 127.239 33.3139 129.134 33.3139" fill="white"/>
<path d="M142.021 35.0722L144.568 30.9459C146.188 32.4769 149.525 34.0011 152.306 34.0011C154.853 34.0011 156.061 32.985 156.061 31.5913C156.061 27.8838 142.762 30.8978 142.762 22.096C142.762 18.3404 146.051 15.0518 151.935 15.0518C155.732 15.0518 158.746 16.3494 160.97 18.107L158.609 22.1372C157.263 20.7022 154.716 19.5419 151.983 19.5419C149.855 19.5419 148.461 20.5169 148.461 21.7664C148.461 25.1032 161.712 22.3226 161.712 31.3578C161.712 35.4361 158.238 38.5394 152.031 38.5394C148.138 38.5394 144.39 37.2418 142.021 35.0653" fill="white"/>
<path d="M166.758 32.4359V20.7573H163.051V15.6149H166.758V9.49756H172.69V15.6149H177.229V20.7573H172.69V30.8568C172.69 32.2437 173.432 33.3147 174.729 33.3147C175.608 33.3147 176.446 32.992 176.769 32.6625L178.018 37.1115C177.139 37.901 175.56 38.5464 173.109 38.5464C168.983 38.5464 166.765 36.418 166.765 32.4291" fill="white"/>
<path d="M194.235 37.9892V35.6754C192.704 37.4811 190.068 38.5453 187.15 38.5453C183.579 38.5453 179.364 36.1354 179.364 31.1303C179.364 26.1252 183.579 23.9007 187.15 23.9007C190.116 23.9007 192.759 24.8757 194.235 26.6333V23.6192C194.235 21.3467 192.292 19.8637 189.326 19.8637C186.916 19.8637 184.692 20.7425 182.797 22.507L180.572 18.5661C183.305 16.1562 186.827 15.0439 190.349 15.0439C195.443 15.0439 200.126 17.0831 200.126 23.5231V37.9754H194.242L194.235 37.9892ZM194.235 32.6133V29.8327C193.26 28.5351 191.406 27.8897 189.511 27.8897C187.198 27.8897 185.296 29.0912 185.296 31.2745C185.296 33.4578 187.198 34.5632 189.511 34.5632C191.413 34.5632 193.267 33.9109 194.235 32.6202" fill="white"/>
<path d="M218.739 37.9901V35.1614C217.208 36.8779 214.523 38.5462 210.864 38.5462C205.955 38.5462 203.634 35.8617 203.634 31.502V15.6147H209.518V29.1883C209.518 32.2916 211.139 33.3146 213.645 33.3146C215.917 33.3146 217.723 32.065 218.739 30.7674V15.6147H224.623V37.9901H218.739Z" fill="white"/>
<path d="M229.072 37.9901V15.6147H234.956V18.67C236.528 16.6789 239.309 15.0586 242.09 15.0586V20.8052C241.671 20.7091 241.115 20.6679 240.469 20.6679C238.526 20.6679 235.931 21.7801 234.956 23.2151V37.997H229.072V37.9901Z" fill="white"/>
<path d="M257.798 37.9892V35.6754C256.267 37.4811 253.631 38.5453 250.713 38.5453C247.143 38.5453 242.927 36.1354 242.927 31.1303C242.927 26.1252 247.143 23.9007 250.713 23.9007C253.679 23.9007 256.315 24.8757 257.798 26.6333V23.6192C257.798 21.3467 255.855 19.8637 252.889 19.8637C250.479 19.8637 248.255 20.7425 246.36 22.507L244.136 18.5661C246.868 16.1562 250.39 15.0439 253.912 15.0439C259.007 15.0439 263.689 17.0831 263.689 23.5231V37.9754H257.805L257.798 37.9892ZM257.798 32.6133V29.8327C256.823 28.5351 254.97 27.8897 253.075 27.8897C250.761 27.8897 248.859 29.0912 248.859 31.2745C248.859 33.4578 250.761 34.5632 253.075 34.5632C254.977 34.5632 256.83 33.9109 257.798 32.6202" fill="white"/>
<path d="M283.229 37.9901V24.4646C283.229 21.3613 281.609 20.2971 279.103 20.2971C276.789 20.2971 274.983 21.5948 274.008 22.9404V37.997H268.125V15.6147H274.008V18.5326C275.443 16.8162 278.176 15.0586 281.835 15.0586C286.744 15.0586 289.106 17.8392 289.106 22.1921V37.9901H283.222H283.229Z" fill="white"/>
<path d="M295.649 32.4359V20.7573H291.942V15.6149H295.649V9.49756H301.581V15.6149H306.12V20.7573H301.581V30.8568C301.581 32.2437 302.323 33.3147 303.621 33.3147C304.499 33.3147 305.337 32.992 305.66 32.6625L306.909 37.1115C306.03 37.901 304.451 38.5464 302 38.5464C297.874 38.5464 295.656 36.418 295.656 32.4291" fill="white"/>
<path d="M308.9 33.6369L310.617 31.6458C312.608 33.9596 315.849 36.1429 320.256 36.1429C326.6 36.1429 328.413 32.6208 328.413 29.9775C328.413 20.901 309.882 25.6246 309.882 14.8248C309.882 9.77166 314.42 6.5791 320.03 6.5791C324.664 6.5791 328.09 8.19941 330.5 10.932L328.742 12.875C326.518 10.1905 323.367 8.9821 319.893 8.9821C315.766 8.9821 312.663 11.3439 312.663 14.6806C312.663 22.6037 331.194 18.2508 331.194 29.7852C331.194 33.7673 328.55 38.539 320.215 38.539C315.121 38.539 311.276 36.4999 308.914 33.63" fill="white"/>
<path d="M336.556 33.6845V17.7491H332.848V15.6208H336.556V9.50342H339.014V15.6208H343.552V17.7491H339.014V33.3137C339.014 35.1194 339.755 36.369 341.327 36.369C342.392 36.369 343.318 35.8609 343.833 35.3048L344.76 37.1585C343.881 37.9961 342.81 38.5454 340.963 38.5454C337.997 38.5454 336.563 36.7397 336.563 33.6776" fill="white"/>
<path d="M345.22 26.7784C345.22 20.2491 349.436 15.0586 355.965 15.0586C362.494 15.0586 366.758 20.2491 366.758 26.7784C366.758 33.3077 362.591 38.5462 355.965 38.5462C349.34 38.5462 345.22 33.3077 345.22 26.7784ZM364.17 26.7784C364.17 21.8213 361.252 17.235 355.972 17.235C350.692 17.235 347.815 21.8213 347.815 26.7784C347.815 31.7354 350.781 36.3698 355.972 36.3698C361.163 36.3698 364.17 31.7835 364.17 26.7784Z" fill="white"/>
<path d="M369.731 37.9907V15.6153H372.141V19.4601C374.043 16.961 376.59 15.1484 379.693 15.1484V17.7917C379.275 17.7025 378.952 17.7025 378.492 17.7025C376.219 17.7025 373.164 19.7416 372.141 21.6846V37.9907H369.731V37.9907Z" fill="white"/>
<path d="M379.872 26.7784C379.872 20.2903 384.458 15.0586 390.665 15.0586C397.476 15.0586 401.231 20.4756 401.231 26.9157V27.5679H382.515C382.749 32.4357 385.989 36.4659 391.269 36.4659C394.098 36.4659 396.686 35.4017 398.588 33.3626L399.838 34.9348C397.613 37.2486 394.791 38.5462 391.084 38.5462C384.554 38.5462 379.872 33.6784 379.872 26.7784M390.624 17.1458C385.344 17.1458 382.701 21.7801 382.515 25.673H398.773C398.725 21.8763 396.226 17.1458 390.617 17.1458" fill="white"/>
<path d="M410.514 18.0448C410.514 20.0771 408.921 21.6699 406.847 21.6699C404.774 21.6699 403.161 20.0771 403.161 18.0448C403.161 16.0126 404.795 14.4678 406.847 14.4678C408.9 14.4678 410.514 16.0606 410.514 18.0448ZM404.074 18.0448C404.074 19.6377 405.255 20.9009 406.868 20.9009C408.482 20.9009 409.594 19.6377 409.594 18.0654C409.594 16.4932 408.433 15.1818 406.841 15.1818C405.248 15.1818 404.067 16.4726 404.067 18.0379L404.074 18.0448ZM406.278 19.9192H405.447V16.3421C405.776 16.2735 406.23 16.2323 406.82 16.2323C407.5 16.2323 407.802 16.3421 408.063 16.4932C408.262 16.6442 408.413 16.9326 408.413 17.2759C408.413 17.6672 408.111 17.9762 407.671 18.1066V18.1478C408.021 18.2782 408.214 18.5391 408.324 19.0197C408.433 19.5621 408.495 19.7818 408.585 19.9123H407.692C407.582 19.7818 407.52 19.4523 407.41 19.0403C407.342 18.649 407.129 18.4705 406.669 18.4705H406.278V19.9123V19.9192ZM406.298 17.8869H406.69C407.15 17.8869 407.52 17.7359 407.52 17.3651C407.52 17.0355 407.28 16.8158 406.758 16.8158C406.538 16.8158 406.387 16.8364 406.298 16.857V17.88V17.8869Z" fill="white"/>
</g>
<defs>
<filter id="filter0_dd_10_629" x="0" y="1" width="45.6138" height="45.6118" filterUnits="userSpaceOnUse" color-interpolation-filters="sRGB">
<feFlood flood-opacity="0" result="BackgroundImageFix"/>
<feColorMatrix in="SourceAlpha" type="matrix" values="0 0 0 0 0 0 0 0 0 0 0 0 0 0 0 0 0 0 127 0" result="hardAlpha"/>
<feOffset dy="1"/>
<feGaussianBlur stdDeviation="1.5"/>
<feColorMatrix type="matrix" values="0 0 0 0 0 0 0 0 0 0 0 0 0 0 0 0 0 0 0.1 0"/>
<feBlend mode="normal" in2="BackgroundImageFix" result="effect1_dropShadow_10_629"/>
<feColorMatrix in="SourceAlpha" type="matrix" values="0 0 0 0 0 0 0 0 0 0 0 0 0 0 0 0 0 0 127 0" result="hardAlpha"/>
<feOffset dy="1"/>
<feGaussianBlur stdDeviation="1"/>
<feColorMatrix type="matrix" values="0 0 0 0 0 0 0 0 0 0 0 0 0 0 0 0 0 0 0.06 0"/>
<feBlend mode="normal" in2="effect1_dropShadow_10_629" result="effect2_dropShadow_10_629"/>
<feBlend mode="normal" in="SourceGraphic" in2="effect2_dropShadow_10_629" result="shape"/>
</filter>
<filter id="filter1_dd_10_629" x="49.5146" y="4" width="364.485" height="38.6792" filterUnits="userSpaceOnUse" color-interpolation-filters="sRGB">
<feFlood flood-opacity="0" result="BackgroundImageFix"/>
<feColorMatrix in="SourceAlpha" type="matrix" values="0 0 0 0 0 0 0 0 0 0 0 0 0 0 0 0 0 0 127 0" result="hardAlpha"/>
<feOffset dy="1"/>
<feGaussianBlur stdDeviation="1.5"/>
<feColorMatrix type="matrix" values="0 0 0 0 0 0 0 0 0 0 0 0 0 0 0 0 0 0 0.1 0"/>
<feBlend mode="normal" in2="BackgroundImageFix" result="effect1_dropShadow_10_629"/>
<feColorMatrix in="SourceAlpha" type="matrix" values="0 0 0 0 0 0 0 0 0 0 0 0 0 0 0 0 0 0 127 0" result="hardAlpha"/>
<feOffset dy="1"/>
<feGaussianBlur stdDeviation="1"/>
<feColorMatrix type="matrix" values="0 0 0 0 0 0 0 0 0 0 0 0 0 0 0 0 0 0 0.06 0"/>
<feBlend mode="normal" in2="effect1_dropShadow_10_629" result="effect2_dropShadow_10_629"/>
<feBlend mode="normal" in="SourceGraphic" in2="effect2_dropShadow_10_629" result="shape"/>
</filter>
<clipPath id="clip0_10_629">
<rect width="358.485" height="32.6793" fill="white" transform="translate(52.5146 6)"/>
</clipPath>
</defs>
</svg>
