<?xml version="1.0" encoding="utf-8"?>
<!-- Generator: Adobe Illustrator 26.1.0, SVG Export Plug-In . SVG Version: 6.00 Build 0)  -->
<svg version="1.1" id="Layer_1" xmlns="http://www.w3.org/2000/svg" xmlns:xlink="http://www.w3.org/1999/xlink" x="0px" y="0px"
	 viewBox="0 0 660 520" style="enable-background:new 0 0 660 520;" xml:space="preserve">
<style type="text/css">
	.st0{fill:url(#SVGID_1_);}
	.st1{fill:#060606;}
	.st2{fill:#FFFFFF;}
	.st3{fill:url(#SVGID_00000129178328079338467040000005120823996870129061_);}
	.st4{fill:url(#SVGID_00000106134794775139751750000008988942590883485867_);}
	.st5{fill:#396AE8;}
	.st6{fill:url(#SVGID_00000119086067156597373150000018039779355755287694_);}
	.st7{fill:url(#SVGID_00000183213851217531988730000001684591545083856036_);}
	.st8{fill:#2B67F0;}
</style>
<g>
	<path class="st8" d="M73.4,455.4H59.2c-1.3-3.9-4.8-6.5-9.8-6.5c-7.7,0-12.4,6-12.4,14.9c0,8.4,4.7,15,12.8,15
		c4.5,0.2,8.6-2.7,10.1-7h14.5C71.5,482.3,63.8,491,49.6,491c-15,0-27.1-10.7-27.1-27.3c0-14.8,10.3-26.9,27-26.9
		C64,436.9,71.8,446.9,73.4,455.4z"/>
	<path class="st8" d="M117.7,450.8c-2.2-0.4-4.5-0.6-6.8-0.6c-8.5,0-12.7,5.3-12.7,14.4v24.7H84v-50.6h14v7.8h0.3
		c2.8-5,8-9.3,14.8-9.3c1.6,0,3.1,0.1,4.7,0.4L117.7,450.8z"/>
	<path class="st8" d="M172.6,489.2h-14.2v-6.3h-0.3c-4.1,6-9.3,8-14.8,8c-8.3,0-18.4-5.1-18.4-22.3v-30h14.3v28.2
		c0,7.4,3.5,11.4,9,11.4c6.2,0,10.2-4.3,10.2-12.8v-26.9h14.3V489.2z"/>
	<path class="st8" d="M185.7,438.6h14.1v6.3h0.4c3.5-5.6,9.2-7.9,15-7.9c11.4,0,19.4,7.6,19.4,23.2v29.1h-14.3v-28.1
		c0-7.7-3.6-11.5-9.5-11.5c-6.3,0-10.8,4.4-10.8,12.9v26.8h-14.3V438.6z"/>
	<path class="st8" d="M294.7,455.4h-14.2c-1.3-3.9-4.8-6.5-9.8-6.5c-7.7,0-12.4,6-12.4,14.9c0,8.4,4.7,15,12.8,15
		c4.5,0.2,8.6-2.7,10.1-7h14.5c-2.9,10.4-10.6,19.1-24.8,19.1c-15,0-27.1-10.7-27.1-27.3c0-14.8,10.3-26.9,27-26.9
		C285.3,436.9,293.1,446.9,294.7,455.4z"/>
	<path class="st8" d="M305.3,413.1h14.3v31.9h0.4c3.5-5.6,9.2-7.9,14.9-7.9c11.3,0,19.3,7.5,19.3,23.2v29.1h-14.3V461
		c0-7.5-3.6-11.4-9.5-11.4c-6.2,0-10.8,4.3-10.8,12.9v26.8h-14.3V413.1z"/>
	<path class="st8" d="M381.3,514.1h-13.5l9.3-25.3l-18.4-50.3h14.8l7.3,22c1.4,4.1,2.5,8.2,3.4,12.4h0.4c0.8-4.2,1.9-8.4,3.3-12.4
		l7.1-22h14.1L381.3,514.1z"/>
	<path d="M476.4,489.2H468v-6.8h-0.2c-4.7,5.6-11.6,8.8-18.9,8.6c-13.8,0-25.6-10.7-25.6-27.2c0-15.3,10.9-27,25.6-27
		c9.6,0,14.6,3.8,18.9,8.9h0.2v-32.7h8.4V489.2z M450.4,483.6c9.8,0,18.4-7.9,18.4-19.5c0-12.1-8-20-18.2-20
		c-12.4,0-18.6,9.8-18.6,19.7C432,473.7,438.2,483.6,450.4,483.6L450.4,483.6z"/>
	<path d="M540.6,489.2h-8.4v-6.8H532c-4.6,5.5-11.4,8.7-18.5,8.6c-13.8,0-26-10.7-26-27.2c0-15.7,11.4-27,26.6-27
		c9.2,0,14.6,4.9,18.1,9h0.1v-7.3h8.4V489.2z M514.7,483.6c9.5,0,18.3-8,18.3-19.5c0-12.1-8.1-20-18.1-20
		c-12.7,0-18.7,9.9-18.7,19.7C496.2,473.6,502.2,483.6,514.7,483.6L514.7,483.6z"/>
	<path d="M549.7,438.6h6.7v-16.2h8.4v16.2h13.5v7h-13.5v26.8c0,8.3,2.5,10.5,7.9,10.5c2.1,0,4.1-0.3,6.1-0.8v6.8
		c-2.5,0.8-5.2,1.1-7.8,1.1c-12.3,0-14.6-8.3-14.6-17.9v-26.4h-6.7L549.7,438.6z"/>
	<path d="M637.6,489.2h-8.4v-6.8H629c-4.6,5.5-11.4,8.7-18.5,8.6c-13.8,0-26-10.7-26-27.2c0-15.7,11.4-27,26.6-27
		c9.2,0,14.6,4.9,18.1,9h0.1v-7.3h8.4V489.2z M611.7,483.6c9.6,0,18.3-8,18.3-19.5c0-12.1-8.1-20-18.1-20
		c-12.7,0-18.7,9.9-18.7,19.7C593.2,473.6,599.2,483.6,611.7,483.6L611.7,483.6z"/>
</g>
<g>
	<path class="st1" d="M335,364c-83.7-0.6-157.3-54.7-180.2-132.5c-28.3-95.9,27.1-192.8,124.7-216.6c73.7-18,137,2.2,187.1,58
		c58,64.6,60.7,155.3,11.3,220.6c-29.9,39.6-70.1,62.4-119.4,68.8c-6,0.8-12.1,1.2-18.2,1.7C338.6,364.1,336.8,364,335,364z
		 M321.5,17.4c-5.1,0-10.1-0.2-15.2,0c-1.7,0.1-4.9,0.5-3.5,3.2c2.2,4.3,4.7,8.8,8.3,11.8c2.7,2.2,7,0,10.4-1.1l24.7-2.7h35
		c-11.6-6-23.8-8-36.2-9C337.2,20.2,329.6,16.3,321.5,17.4z M238.8,40.7c-20,10.1-35.7,25.5-49,42.9c-22.4,29.6-33,63.6-32.2,100.6
		c0.7,35.8,11.7,68.5,33.4,97.3c5.8,7.8,11.8,15.4,19.7,21.7c1.4-2,0.9-3.9,0.8-5.5c-0.9-10,2.5-18.5,8.5-26.2
		c2.2-2.8,4.4-5.5,6.7-8.2c2.8-3.2,3-4.8-1.9-6.4c-20-6.4-35.9-18.1-45.9-37.1c-0.3-0.9-1-1.6-1.9-2c-9.1-4-11.3-11.5-10.4-20.6
		c1.7-17.6,7.1-34.4,11.6-51.4c1-3.4,3.1-6.5,6-8.5c5-3.6,7.9-8.4,9.9-14.2c2.7-7.9,8.2-11.5,16.6-11.6c4.1,0,8.3-0.1,12.4,0
		c6.5,0.2,12.4-1.1,17-6.1c4-0.5,5.8-4.4,9-6.1c8.8-4.9,12.3-12.6,12.5-22.7c0.2-9.4,3.9-17.4,13.3-21.8c5.1-2.6,9.8-5.8,14-9.6
		c3.2-2.7,4.9-5.9,4.4-10.3c-0.8-5.1,0.2-10.4,2.9-14.8C274.8,23.3,256,29.6,238.8,40.7L238.8,40.7z M314.2,150.2
		c9.8,0.1,17,4.4,23.5,10c12,10.3,15.1,38.7-2.6,48.3c-15.7,8.5-32.1,14-50.2,12.3c-8.4-0.7-16.9-1.5-25.3-2.4
		c-20.7-2-41.4-5.9-62.3-2.7c-4.8,0.7-6.1,1.9-2.9,5.8c12.9,15.9,29.4,24.8,50.2,23.7c20.6-1.1,41.2-4.2,61.8-0.4
		c23.3,4.3,41.4-2.9,54.1-23.2c1.6-2.5,3.6-5.2,7.1-3.1c3.4,2.1,2.2,4.8,0.4,7.6c-10.8,17-24,30.2-46.2,29.8
		c-3.5-0.1-7.1,0.7-10.6,1c-3.3,0.3-6.2,1.4-8.1,4.2c-4.1,6.2-8.8,12.2-11.5,19.2c-7.2,18.5-14.3,37-21.6,55.5
		c-1.6,4-0.9,6.3,3.6,7.9c19.2,6.8,39.3,10.3,59.6,10.5c38.7,0.2,73.6-11.3,104.6-34.6c1.8-1.4,2.9-2.7,2.1-4.9
		c-5.1-13.4-1.5-26.3,2.1-39.3c3-10.6,4.9-21.4,3-32.6s-1.8-11.2-10.8-5.2c-7.8,5.2-16.5,8.3-25.1,11.5c-3.2,1.2-7.9,1.8-9.2-1.2
		c-1.7-4.1,3.6-4.1,6.1-5.4c7.1-3.4,15.1-5.1,21.3-10c16.1-13,23.8-30.8,26.6-50.9c1.3-9.1,1.7-18.4,2.5-27.6
		c0.2-1.8,0.3-3.6,2.9-3.6s2.5,2.1,2.6,3.7c0.1,1.4-0.1,2.8,0,4.1c0.6,21.6-4,42.7-7.4,63.8c-3.5,22.2-1.1,43.9,3.7,65.6
		c0.6,2.7,1.8,5.9,4,6.7c3.1,1,4.2-2.8,5.8-4.9c15.4-20,25.2-42.4,30.3-67.1c3.9-19.1,3.4-37.2-6.5-54.9c-7-12.5-13.3-25.4-20.1-38
		c-14.1-26.2-34.1-48-52.9-70.7c-5.7-6.9-12-13.6-20.2-17.9c-1.2-0.6-2.4-1.9-3.8-1.2c-1.9,1-0.8,2.9-0.4,4.2
		c2.5,10.3-6.7,22-16.7,25.5c-2.2,0.8-5,1.9-6.4-0.7c-1.3-2.6,1.7-3.4,3.2-4.7c6.7-5.8,10.5-15.4,8.8-22.8
		c-4.9,2.3-9.1,5.2-11.6,10.4c-1.1,2.2-2.6,6.3-5.3,4.8c-3.3-1.8-1.5-5.6,0.3-8.4c1.6-2.5,3.6-4.7,6.1-6.3c2.6-1.7,5.9-2,8.4-4.6
		c-2.8-1.6-6-2.3-9.2-2.1c-18.5,0.2-37.1-0.1-55.3,3.6c-5.8,1.1-11.7,2.4-16.2,6.5c-6.5,6-13.8,11.1-21.7,15.2
		c-3.2,1.7-6.5,3.6-5.3,8c1.1,4.2,4.4,6.1,8.6,6.7c1.7,0.2,3.9-0.3,4.4,2c0.4,2.1-1.7,3-3,4c-11.8,9.2-23.3,18.7-34.7,28.4
		c-7.4,6.4-16.9,9.8-26.7,9.3c-3.9-0.1-7.9,0-11.8,0c-9.3,0.1-11.3,2.8-8.8,11.7c0.9,3.3,1.2,6.7-1.7,9.3c-3,2.6-6,2.3-9.1-0.1
		c-1.6-1.3-2.7-0.7-3.9,0.8c-2.7,3.3-2.2,5.8,2.1,6.9c7.6,2,13.2-2,18.5-6.8c1.1-1,2.3-2.7,4-1.6c1.6,1.2,0.6,2.9-0.1,4.3
		c-3.3,6.4-16.1,13.2-23.3,12.3c-1.9-0.2-2.9,0-3.4,2c-3,12.4-7.1,24.6-8.1,37.4c-1,13.1,2,15.6,14.9,12.6
		c21.2-4.9,42.2-6.3,63.5,0.3c11.5,3.6,23.8,3.9,35.8,2.6c14.1-1.5,28.1-3.9,39.9-12.9c4.5-3.2,7.4-8.3,7.8-13.9
		c0.8-8.3-3-14.4-8.7-19.7C324.9,159.4,319.8,155.1,314.2,150.2L314.2,150.2z M271.2,252v0.2c-2-0.1-3.9-0.4-5.9-0.4
		c-9-0.1-18.4-0.8-25.3,6.7c-8.5,9.2-15.2,19.6-17.6,32.2c-3.7,19.7-1,25.2,16.3,35.4l5.5,3.3c14,8.1,14,8.1,19.1-7
		c2.4-7,0.7-12.1-5.6-16.2c-1.5-1-3.2-1.6-4.7-2.4c-1.5-0.8-2.8-1.9-2.5-3.6c0.3-1.6,1.5-2.9,3.1-3.2c5.4-0.7,10.9-2.5,16.3-0.6
		c2.8,1,3.9,0.2,5-2.1c5.7-12.5,11.5-24.9,17.3-37.4c1.2-2.6,0.5-3.5-2.2-3.7C283.8,252.9,277.4,252.4,271.2,252L271.2,252z
		 M419.7,47.8c29.7,30.3,54.6,64.9,74,102.6C495.7,122.9,446.8,55.2,419.7,47.8z"/>
	<path class="st2" d="M314.2,150.1c5.6,5,10.7,9.3,15.5,13.8c5.6,5.3,9.5,11.4,8.7,19.7c-0.4,5.6-3.3,10.6-7.8,13.9
		c-11.8,9-25.7,11.4-39.9,12.9c-12,1.3-24.3,1-35.8-2.6c-21.3-6.7-42.3-5.3-63.5-0.3c-13,3-15.9,0.5-14.9-12.6c1-12.8,5-25,8.1-37.4
		c0.5-2,1.5-2.2,3.4-2c7.2,0.9,20-5.9,23.3-12.3c0.7-1.3,1.7-3.1,0.1-4.3c-1.6-1.1-2.9,0.5-4,1.6c-5.2,4.8-10.8,8.7-18.5,6.8
		c-4.3-1.1-4.8-3.5-2.1-6.9c1.2-1.5,2.4-2.1,3.9-0.8c3,2.4,6.1,2.7,9.1,0.1c3-2.6,2.7-6,1.7-9.3c-2.5-8.9-0.5-11.7,8.8-11.7
		c3.9,0,7.9-0.1,11.8,0c9.8,0.4,19.3-2.9,26.7-9.3c11.4-9.7,22.9-19.2,34.7-28.4c1.3-1,3.4-1.9,3-4c-0.5-2.3-2.8-1.8-4.4-2
		c-4.2-0.6-7.4-2.6-8.6-6.7c-1.2-4.4,2.1-6.4,5.3-8c7.9-4.1,15.1-9.2,21.7-15.2c4.6-4.1,10.4-5.4,16.2-6.5
		c18.3-3.7,36.8-3.3,55.3-3.6c3.2-0.2,6.4,0.5,9.2,2.1c-2.5,2.6-5.9,2.9-8.4,4.6c-2.5,1.7-4.5,3.8-6.1,6.3c-1.7,2.7-3.6,6.5-0.3,8.4
		c2.7,1.5,4.2-2.5,5.3-4.8c2.5-5.1,6.7-8,11.6-10.4c1.7,7.4-2,17-8.8,22.8c-1.6,1.3-4.6,2.2-3.2,4.7c1.3,2.5,4.1,1.5,6.4,0.7
		c10-3.5,19.3-15.2,16.7-25.5c-0.3-1.3-1.5-3.2,0.4-4.2c1.4-0.7,2.6,0.6,3.8,1.2c8.2,4.2,14.5,10.9,20.2,17.9
		c18.7,22.7,38.7,44.5,52.9,70.7c6.8,12.6,13.1,25.5,20.1,38c9.9,17.7,10.4,35.8,6.5,54.9c-5.1,24.7-14.9,47.2-30.3,67.1
		c-1.6,2.1-2.7,5.8-5.8,4.9c-2.2-0.7-3.4-3.9-4-6.7c-4.8-21.7-7.2-43.4-3.7-65.6c3.3-21.1,8-42.1,7.4-63.8c0-1.4,0.2-2.8,0-4.1
		c-0.2-1.7,0.1-3.7-2.6-3.7c-2.7,0-2.7,1.9-2.9,3.6c-0.8,9.2-1.2,18.5-2.5,27.6c-2.9,20-10.5,37.9-26.6,50.9
		c-6.1,4.9-14.2,6.6-21.3,10c-2.5,1.2-7.8,1.2-6.1,5.4c1.2,3,6,2.4,9.2,1.2c8.7-3.2,17.4-6.4,25.1-11.5c9-6,8.9-5.9,10.8,5.2
		s0,22-3,32.6c-3.6,13-7.2,25.9-2.1,39.3c0.8,2.2-0.2,3.5-2.1,4.9c-30.9,23.2-65.8,34.7-104.5,34.5c-20.3-0.2-40.5-3.7-59.6-10.5
		c-4.4-1.6-5.2-3.8-3.6-7.9c7.2-18.5,14.3-37,21.6-55.5c2.8-7,7.4-13,11.5-19.2c1.9-2.8,4.8-3.9,8.1-4.2c3.5-0.3,7.1-1.1,10.6-1
		c22.2,0.5,35.4-12.7,46.2-29.8c1.8-2.8,2.9-5.5-0.4-7.6c-3.3-2-5.5,0.6-7.1,3.1c-12.7,20.3-30.8,27.5-54.1,23.2
		c-20.6-3.8-41.2-0.7-61.8,0.4c-20.8,1.1-37.3-7.8-50.2-23.7c-3.3-4-1.9-5.1,2.9-5.8c21-3.2,41.6,0.7,62.3,2.7
		c8.4,0.8,16.9,1.6,25.3,2.4c18.2,1.7,34.5-3.8,50.2-12.3c17.7-9.6,14.6-38.1,2.6-48.3C331.1,154.6,324,150.3,314.2,150.1z
		 M339.2,77.7c-8.2-0.1-18.9,5.1-23.8,11.4c-1.2,1.6-1.7,3.2-0.7,4.8c1.1,1.9,2.8,0.9,4-0.1c2.1-1.6,2.6,0.4,3.7,1.4
		c6.8,6.1,15.7,4.4,19.5-3.6c1.3-2.9,0.6-6.9,5.1-8.2c1.2-0.3,0.8-2.7-1.1-3.7C343.8,78.5,341.5,77.9,339.2,77.7z M249.2,166.1
		c5.2-0.9,9.8-2.5,12.7-6.9c1.3-2,1.4-4-0.2-5.9c-1.7-1.9-3.1-1.6-5.2-0.7c-2.8,1.3-5.8,2.8-8.8,3.2c-7.5,0.9-15.3,2.1-21-5.1
		c-1.2-1.5-2.3-4.5-4.7-3c-2.5,1.5,0.1,3.9,0.5,5.8c0.2,1.2,1.5,2.2,2.4,3.2C231.3,164.6,240.9,163.7,249.2,166.1z M239.9,132.2
		c-3.7,0.5-7.8,0.7-8.3,5.6c-0.4,3.7,6,12.4,9,12.7c3.2,0.3,7-4.5,6.9-8.9C247.5,136.3,244.2,132.3,239.9,132.2L239.9,132.2z"/>
	<path class="st2" d="M271.2,252c6.3,0.4,12.6,1,18.9,1.3c2.8,0.2,3.4,1.1,2.2,3.7c-5.8,12.4-11.6,24.9-17.3,37.4
		c-1.1,2.3-2.2,3.1-5,2.1c-5.4-1.9-10.9-0.2-16.3,0.6c-1.6,0.3-2.9,1.6-3.1,3.2c-0.3,1.8,1.1,2.9,2.5,3.6c1.4,0.8,3.2,1.4,4.7,2.4
		c6.3,4.1,8,9.1,5.6,16.2c-5.1,15.2-5.1,15.1-19.1,6.9l-5.5-3.3c-17.3-10.2-20-15.7-16.3-35.4c2.4-12.5,9.1-22.9,17.6-32.2
		c6.9-7.5,16.3-6.8,25.3-6.7c2,0,3.9,0.2,5.9,0.4L271.2,252z"/>
	<path class="st8" d="M296.1,20c-2.7,4.4-3.8,9.7-2.9,14.8c0.5,4.4-1.2,7.6-4.4,10.3c-4.2,3.8-8.9,7.1-14,9.7
		c-9.4,4.4-13.1,12.5-13.3,21.8c-0.2,10.1-3.7,17.7-12.5,22.7c-3.2,1.8-4.9,5.7-9,6.1c-4.6,5-10.5,6.3-17,6.1
		c-4.1-0.1-8.3-0.1-12.4,0c-8.4,0.1-13.9,3.7-16.6,11.6c-2,5.7-4.9,10.5-9.9,14.2c-2.9,2.1-5,5.1-6,8.5c-4.5,17-9.9,33.8-11.6,51.4
		c-0.9,9.1,1.4,16.6,10.4,20.6c0.9,0.4,1.5,1.1,1.9,2c10,19,25.9,30.6,45.9,37.1c5,1.6,4.7,3.1,1.9,6.4c-2.3,2.7-4.5,5.4-6.7,8.2
		c-5.9,7.7-9.3,16.2-8.5,26.2c0.1,1.6,0.6,3.5-0.8,5.5c-7.8-6.3-13.9-14-19.7-21.8c-21.7-28.8-32.6-61.4-33.4-97.3
		c-0.8-37.1,9.8-71.1,32.2-100.6c13.2-17.5,29-32.8,49-42.9C256,29.6,274.8,23.3,296.1,20z M419.7,47.8
		c29.7,30.3,54.6,64.9,74,102.6C495.7,122.9,446.8,55.2,419.7,47.8z M321.5,17.4c-5.1,0-10.1-0.2-15.2,0c-1.7,0.1-4.9,0.5-3.5,3.2
		c2.2,4.3,4.7,8.8,8.3,11.8c2.7,2.2,7,0,10.4-1.1l24.7-2.7h35c-11.6-6-23.8-8-36.2-9C337.2,20.2,329.6,16.3,321.5,17.4L321.5,17.4z"
		/>
	<path class="st1" d="M339.2,77.7c2.3,0.2,4.6,0.9,6.7,2c1.8,1,2.2,3.3,1.1,3.7c-4.5,1.3-3.7,5.3-5.1,8.2
		c-3.8,8.1-12.7,9.8-19.5,3.6c-1-0.9-1.5-3-3.7-1.4c-1.2,0.9-2.9,2-4,0.1c-1-1.6-0.5-3.2,0.7-4.8C320.4,82.8,331.1,77.6,339.2,77.7z
		"/>
	<path class="st1" d="M249.2,166.1c-8.3-2.4-17.9-1.5-24.4-9.3c-0.9-1.1-2.2-2.1-2.4-3.2c-0.4-1.9-3-4.3-0.5-5.8
		c2.5-1.5,3.5,1.5,4.7,3c5.7,7.2,13.5,6,21,5.1c3-0.4,6-1.8,8.8-3.2c2.1-1,3.6-1.2,5.2,0.7c1.6,1.8,1.5,3.9,0.2,5.9
		C259,163.6,254.4,165.1,249.2,166.1z"/>
	<path class="st1" d="M239.9,132.2c4.3,0.1,7.6,4.1,7.7,9.5c0,4.3-3.7,9.1-6.9,8.9c-3-0.2-9.5-8.9-9-12.7
		C232.2,133,236.2,132.8,239.9,132.2z"/>
</g>
</svg>
