<?xml version="1.0" encoding="UTF-8" standalone="no"?>
<svg
   id="Layer_1"
   data-name="Layer 1"
   viewBox="0 0 146.48 67.91"
   version="1.1"
   sodipodi:docname="BTS_tweaked.svg"
   inkscape:export-filename="BTS_tweaked.png"
   inkscape:export-xdpi="1696.36"
   inkscape:export-ydpi="1696.36"
   inkscape:version="1.2.2 (732a01da63, 2022-12-09)"
   xmlns:inkscape="http://www.inkscape.org/namespaces/inkscape"
   xmlns:sodipodi="http://sodipodi.sourceforge.net/DTD/sodipodi-0.dtd"
   xmlns="http://www.w3.org/2000/svg"
   xmlns:svg="http://www.w3.org/2000/svg">
  <sodipodi:namedview
     id="namedview67"
     pagecolor="#ffffff"
     bordercolor="#000000"
     borderopacity="0.25"
     inkscape:showpageshadow="2"
     inkscape:pageopacity="0.0"
     inkscape:pagecheckerboard="0"
     inkscape:deskcolor="#d1d1d1"
     showgrid="false"
     inkscape:zoom="10.301748"
     inkscape:cx="58.582291"
     inkscape:cy="33.974817"
     inkscape:window-width="3840"
     inkscape:window-height="2054"
     inkscape:window-x="-11"
     inkscape:window-y="-11"
     inkscape:window-maximized="1"
     inkscape:current-layer="Layer_1" />
  <defs
     id="defs4">
    <style
       id="style2">
      .cls-1 {
        fill: #fff;
        fill-rule: evenodd;
      }
    </style>
  </defs>
  <path
     d="m24.33,45.54l-15.34-8.74-.1-17.65,15.24-8.92,15.34,8.74.1,17.66-15.24,8.92Zm-14.59-9.18l14.59,8.31,14.49-8.48-.1-16.79-14.59-8.31-14.49,8.48.1,16.79Z"
     id="path6" />
  <polygon
     class="cls-1"
     points="14.96 22.49 9.51 25.68 4.02 22.55 3.99 16.24 9.44 13.05 14.93 16.17 14.96 22.49"
     id="polygon8" />
  <path
     d="m9.51,26.4l-6.11-3.48-.04-7.04,6.07-3.56,6.12,3.48.04,7.04-6.08,3.56Zm-4.87-4.21l4.86,2.77,4.83-2.83-.03-5.59-4.86-2.77-4.83,2.83.03,5.59Z"
     id="path10" />
  <polygon
     class="cls-1"
     points="44.83 22.59 39.19 25.89 33.52 22.66 33.48 16.13 39.12 12.83 44.79 16.06 44.83 22.59"
     id="polygon12" />
  <path
     d="m39.2,26.61l-6.3-3.59-.04-7.25,6.26-3.67,6.3,3.59.04,7.25-6.26,3.66Zm-5.05-4.32l5.04,2.87,5.02-2.93-.03-5.81-5.05-2.88-5.01,2.94.03,5.81Z"
     id="path14" />
  <polygon
     class="cls-1"
     points="30.11 47.57 24.31 50.96 18.48 47.64 18.44 40.93 24.24 37.54 30.07 40.86 30.11 47.57"
     id="polygon16" />
  <path
     d="m24.32,51.69l-6.46-3.68-.04-7.44,6.42-3.76,6.46,3.68.04,7.44-6.42,3.76Zm-5.21-4.41l5.21,2.97,5.17-3.03-.03-5.99-5.21-2.96-5.17,3.03.03,5.99Z"
     id="path18" />
  <path
     d="m24.39,55.76L.16,41.96l-.16-27.88L24.06,0l24.23,13.8.16,27.88-24.06,14.08ZM1.41,41.23l22.97,13.09,22.82-13.35-.15-26.44L24.07,1.45,1.26,14.8l.15,26.44Z"
     id="path20" />
  <path
     d="m57.94,40.67c1.09.11,2.31.16,3.66.16,1.96,0,3.48-.25,4.56-.74,1.09-.49,1.88-1.22,2.36-2.19.48-.97.73-2.18.73-3.63s-.27-2.65-.8-3.59c-.53-.95-1.34-1.65-2.45-2.11-1.11-.46-2.63-.69-4.57-.69h-3.48v12.79Zm3.92-14.78c2.28,0,4.02-.55,5.23-1.65,1.21-1.1,1.81-2.7,1.81-4.8,0-1.03-.17-1.89-.52-2.56-.34-.68-.8-1.23-1.39-1.63-.59-.4-1.29-.68-2.1-.85-.8-.18-1.68-.26-2.63-.26-.56,0-1.31.02-2.24.05-.93.02-1.63.06-2.09.09v11.62h3.92Zm-10.76,16.91v-1.11c.93-.23,1.55-.5,1.86-.79.32-.29.52-.71.62-1.24.1-.54.15-1.37.15-2.48v-19.43c0-1.03-.04-1.78-.11-2.25-.08-.48-.2-.84-.38-1.11-.17-.26-.4-.47-.68-.63-.29-.16-.77-.33-1.46-.53v-1.09h12.29c2.38,0,4.29.26,5.73.77,1.45.5,2.53,1.25,3.23,2.25.7,1,1.06,2.28,1.06,3.85,0,1.31-.25,2.44-.75,3.41-.5.96-1.16,1.75-1.97,2.37-.8.63-1.84,1.21-3.12,1.75v.2c2.04.61,3.57,1.56,4.62,2.84,1.05,1.28,1.57,2.81,1.57,4.57,0,2.04-.45,3.7-1.36,4.99-.9,1.28-2.17,2.21-3.81,2.79-1.63.58-3.6.87-5.92.87h-11.57Z"
     id="path22" />
  <path
     d="m83.1,31.8c0,3.08.49,5.45,1.47,7.11.99,1.65,2.39,2.48,4.22,2.48,1,0,1.85-.24,2.55-.73.7-.48,1.28-1.14,1.72-1.96.44-.82.76-1.77.95-2.85.19-1.09.29-2.23.29-3.42,0-2.19-.25-4.02-.73-5.47-.49-1.46-1.15-2.53-1.98-3.2-.84-.68-1.8-1.03-2.88-1.03-1.81,0-3.2.79-4.17,2.36-.96,1.58-1.45,3.81-1.45,6.71Zm5.35,11.37c-3.12,0-5.5-.92-7.14-2.75-1.63-1.83-2.45-4.55-2.45-8.14,0-2.47.43-4.56,1.28-6.26.86-1.71,2.04-2.98,3.54-3.81,1.5-.84,3.2-1.26,5.11-1.26,3.21,0,5.63.94,7.28,2.8,1.65,1.86,2.48,4.54,2.48,8.03,0,2.48-.41,4.57-1.24,6.28-.82,1.71-1.99,2.99-3.51,3.83-1.51.85-3.29,1.27-5.35,1.27Z"
     id="path24" />
  <path
     d="m111.91,44.66c-.82,1.85-1.62,3.35-2.4,4.5-.78,1.16-1.64,2.03-2.58,2.61-.93.58-2.04.88-3.33.88-.82,0-1.75-.1-2.79-.29v-4.45h2.01c.18.61.4,1.03.67,1.27.27.24.66.36,1.17.36.45,0,.85-.09,1.21-.26.35-.17.72-.46,1.09-.88.38-.42.83-1.06,1.34-1.93.52-.86,1.1-1.96,1.75-3.29l-6.28-16.91c-.41-1.1-.74-1.86-.99-2.29-.25-.43-.51-.77-.79-.99-.29-.23-.72-.41-1.29-.54v-1.09h9.14v1.09c-.7.17-1.2.33-1.48.49-.29.15-.5.35-.63.6-.14.25-.2.56-.2.96s.04.82.14,1.26c.1.44.25.94.47,1.52l4,11.26,4.5-10.78c.25-.6.45-1.15.59-1.65.14-.5.21-.97.21-1.41,0-.64-.18-1.13-.53-1.46-.35-.33-.96-.6-1.84-.79v-1.09h8.41v1.09c-.59.12-1.04.3-1.36.55-.31.25-.62.63-.94,1.17-.31.53-.68,1.28-1.12,2.24l-8.13,18.26Z"
     id="path26" />
  <path
     d="m139.86,29.49c0-1.16-.06-2.1-.16-2.8-.1-.7-.28-1.29-.53-1.77-.25-.48-.58-.89-.99-1.22-.42-.33-.88-.57-1.38-.72-.5-.15-1.11-.23-1.81-.23-1.92,0-3.38.77-4.39,2.3-1,1.53-1.5,3.74-1.5,6.62s.41,5.06,1.23,6.56c.82,1.49,2.07,2.24,3.75,2.24.66,0,1.21-.05,1.65-.16.43-.12.86-.3,1.28-.54.42-.25.84-.59,1.27-1.02.43-.43.75-.83.95-1.19.21-.36.36-.77.46-1.23.11-.47.16-1.07.16-1.8v-5.04Zm0-11.1c0-1.43-.01-2.43-.04-3-.02-.57-.09-1.05-.19-1.45-.09-.4-.23-.71-.4-.93-.17-.23-.4-.41-.69-.54-.3-.13-.82-.27-1.58-.41v-1.16l5.44-.23h1.32v26c0,1.17.02,2.01.06,2.51.05.5.14.89.29,1.19.15.3.38.55.7.73.33.19.9.36,1.71.53v1.17l-5.3.23h-1.34l.26-3.68-.33-.09c-.95,1-1.77,1.75-2.46,2.25-.7.5-1.44.9-2.22,1.21-.79.3-1.63.45-2.53.45-2.46,0-4.35-.93-5.68-2.79-1.33-1.87-2-4.56-2-8.08,0-2.45.43-4.54,1.29-6.26.87-1.72,2.04-2.99,3.52-3.83,1.47-.84,3.13-1.26,4.98-1.26.99,0,1.89.08,2.69.24.81.16,1.65.42,2.5.78v-3.58Z"
     id="path28" />
  <path
     d="m2.67,67.78v-.53c.23-.04.4-.09.53-.15.13-.07.23-.15.3-.26.07-.12.11-.26.13-.44.02-.18.02-.39.02-.65v-8.05h-.65c-.33,0-.58.04-.75.11-.17.08-.31.19-.44.35-.13.16-.24.38-.33.65-.09.27-.17.53-.23.77H.14v-2.83h9.53v2.83h-1.11c-.1-.36-.19-.63-.25-.8-.06-.18-.13-.32-.2-.44-.07-.12-.14-.22-.23-.3-.08-.08-.16-.14-.25-.19-.09-.05-.21-.09-.35-.11-.14-.03-.31-.04-.53-.04h-.59v8.05c0,.3,0,.52.03.67.02.14.04.26.09.35.04.09.09.17.15.23.07.05.15.1.26.15.12.04.27.08.45.11v.53H2.67Z"
     id="path30" />
  <path
     d="m14.57,62.92c-.02-.82-.14-1.43-.33-1.84-.19-.41-.5-.62-.93-.62s-.75.21-1.01.64c-.25.42-.39,1.02-.43,1.81h2.69Zm2.19,3.39c-.55.58-1.1.99-1.65,1.23-.54.24-1.15.36-1.85.36-1.26,0-2.21-.34-2.84-1.03-.63-.69-.94-1.7-.94-3.05,0-.88.16-1.63.48-2.26.33-.63.78-1.12,1.38-1.45.6-.33,1.3-.49,2.1-.49.48,0,.91.06,1.28.18.38.11.69.27.95.48.27.2.48.45.65.73.21.34.36.72.46,1.16.11.45.16,1,.16,1.63h-5.13c0,.97.18,1.69.53,2.15.34.46.87.69,1.57.69.4,0,.77-.08,1.09-.23.33-.15.69-.42,1.08-.82l.65.72Z"
     id="path32" />
  <path
     d="m24.39,65.71l.62.75c-.53.52-1.04.89-1.53,1.12-.5.22-1.03.33-1.61.33-1.17,0-2.07-.34-2.68-1.03-.61-.69-.92-1.68-.92-2.99,0-.89.17-1.65.5-2.3.33-.64.82-1.13,1.45-1.46.63-.33,1.36-.5,2.17-.5.43,0,.87.03,1.31.1.43.06.83.14,1.18.25v1.95h-1.6c-.08-.5-.21-.87-.38-1.11-.16-.23-.39-.35-.69-.35-.2,0-.4.05-.58.15-.18.1-.33.28-.46.53-.14.24-.24.57-.33.98-.09.41-.13.93-.13,1.56s.06,1.17.18,1.61c.13.43.32.76.58.99.27.24.62.35,1.04.35.31,0,.6-.07.88-.2.28-.13.62-.38.99-.73Z"
     id="path34" />
  <path
     d="m29.05,60.83c.48-.44.92-.75,1.31-.93.38-.18.78-.28,1.18-.28.59,0,1.05.11,1.37.33.33.22.57.53.72.94.15.41.23.94.23,1.6v2.95c0,.24,0,.46.01.67,0,.21.03.38.06.5.03.12.07.22.13.3.06.08.14.14.24.2.11.05.23.1.38.14v.53h-3.92v-.53c.25-.07.42-.15.52-.26.1-.12.17-.27.2-.46.03-.2.05-.56.05-1.07v-2.11c0-.54-.02-.96-.05-1.26-.03-.3-.09-.53-.18-.69-.08-.17-.19-.29-.33-.38-.14-.08-.31-.13-.53-.13-.2,0-.41.07-.64.2-.23.13-.41.3-.57.52-.14.22-.21.45-.21.69v3.14c0,.3,0,.54.01.7,0,.16.02.29.04.38.02.09.04.17.06.24.03.07.07.13.11.19.05.06.12.11.21.16.09.05.21.1.36.14v.53h-3.96v-.53c.16-.04.28-.09.38-.14.09-.05.16-.11.21-.18.05-.07.09-.15.13-.25.04-.11.07-.25.08-.44.02-.19.02-.46.02-.8v-6.31c0-.46,0-.8-.01-1.02,0-.22-.02-.4-.05-.55-.02-.15-.07-.27-.13-.35-.05-.09-.13-.16-.24-.21-.1-.06-.26-.11-.49-.15v-.54l2.25-.11h1.01v4.62h.04Z"
     id="path36" />
  <path
     d="m44.66,67.78h-3.92v-.53c.24-.07.41-.15.52-.26.1-.12.17-.27.2-.46.03-.2.05-.56.05-1.07v-2.16c0-.38,0-.7-.02-.94-.02-.24-.04-.44-.08-.6-.03-.16-.08-.29-.15-.39-.06-.11-.13-.19-.2-.26-.08-.07-.16-.12-.26-.15-.09-.03-.21-.05-.36-.05-.21,0-.43.07-.65.2-.22.13-.4.3-.55.53-.15.22-.23.45-.23.7v3.12c0,.51.02.87.05,1.07.03.2.1.36.2.48.1.11.28.2.53.26v.53h-3.91v-.53c.26-.07.44-.17.54-.28.1-.12.17-.27.2-.47.03-.19.05-.54.05-1.06v-3.33c0-.39,0-.68-.02-.88,0-.19-.04-.35-.09-.47-.05-.12-.13-.21-.24-.28-.1-.08-.28-.14-.54-.2v-.54l2.21-.08h1.02l-.11,1.17.09.02c.33-.29.63-.52.88-.69.26-.18.53-.31.8-.41.28-.1.57-.15.88-.15.44,0,.81.07,1.09.2.29.13.53.31.7.55.18.24.31.53.39.88.08.35.13.76.13,1.22v2.97c0,.24,0,.46.01.67,0,.21.03.38.06.5.03.12.08.22.13.3.06.08.14.14.24.2.11.05.23.1.38.14v.53Z"
     id="path38" />
  <path
     d="m45.86,67.26c.26-.07.44-.17.54-.28.1-.12.17-.27.2-.47.03-.19.05-.54.05-1.06v-3.77c0-.26-.01-.47-.04-.63-.02-.17-.06-.3-.13-.39-.07-.1-.16-.18-.28-.23-.12-.05-.27-.09-.45-.14v-.54l2.22-.08h1.01v5.75c0,.3,0,.54.01.7,0,.16.02.29.04.38.02.09.04.17.06.24.03.07.07.13.13.19.05.06.12.11.21.16.09.05.21.1.36.14v.53h-3.95v-.53Zm3.07-10.72v1.97h-2.21v-1.97h2.21Z"
     id="path40" />
  <path
     d="m57.24,65.71l.62.75c-.53.52-1.04.89-1.53,1.12-.5.22-1.03.33-1.61.33-1.17,0-2.07-.34-2.68-1.03-.61-.69-.92-1.68-.92-2.99,0-.89.17-1.65.5-2.3.33-.64.82-1.13,1.44-1.46.63-.33,1.36-.5,2.17-.5.43,0,.87.03,1.31.1.43.06.83.14,1.18.25v1.95h-1.6c-.09-.5-.21-.87-.38-1.11-.16-.23-.39-.35-.69-.35-.2,0-.4.05-.58.15-.18.1-.33.28-.46.53-.14.24-.25.57-.33.98-.09.41-.13.93-.13,1.56s.06,1.17.18,1.61c.13.43.32.76.58.99.27.24.62.35,1.04.35.31,0,.6-.07.88-.2.28-.13.62-.38.99-.73Z"
     id="path42" />
  <path
     d="m63.34,63.96c-.83.02-1.45.18-1.85.48-.4.29-.6.71-.6,1.27,0,.34.09.59.28.77.18.18.43.26.75.26.25,0,.48-.07.7-.2.23-.13.4-.31.53-.53.13-.22.19-.45.19-.7v-1.34Zm.28,2.76l-.13-.05c-.45.44-.88.75-1.29.94-.41.19-.85.29-1.32.29s-.88-.09-1.22-.25c-.35-.17-.6-.4-.78-.7-.17-.3-.25-.65-.25-1.04,0-.79.39-1.42,1.17-1.87.78-.46,1.96-.75,3.54-.87v-.77c0-.5-.06-.89-.18-1.16-.11-.28-.26-.47-.44-.58-.18-.11-.39-.16-.63-.16s-.47.04-.65.13c-.18.08-.34.25-.49.49-.14.25-.25.58-.31,1.01h-1.53v-1.48c.49-.22.9-.38,1.23-.5.33-.12.66-.21.98-.29.33-.08.62-.14.87-.18.25-.03.5-.05.75-.05.65,0,1.17.09,1.56.26.39.17.69.45.88.84.2.39.3.92.3,1.61v3.15c0,.35,0,.63.02.83.02.19.04.34.08.43.03.09.08.17.13.23.06.06.13.11.2.14.08.03.23.08.44.14v.53h-3l.07-1.06Z"
     id="path44" />
  <path
     d="m70.72,65.45c0,.51.02.86.05,1.06.03.19.1.35.2.46.1.12.28.21.55.29v.53h-3.96v-.53c.16-.04.28-.09.38-.14.09-.05.16-.11.21-.18.05-.07.09-.15.13-.25.04-.11.07-.25.08-.44.02-.19.02-.46.02-.8v-6.31c0-.46,0-.8-.01-1.02,0-.22-.03-.4-.05-.55-.02-.15-.07-.27-.13-.35-.05-.09-.13-.16-.24-.21-.1-.06-.26-.11-.49-.15v-.54l2.25-.11h1.01v9.25Z"
     id="path46" />
  <path
     d="m77.54,65.06c.13.65.36,1.13.68,1.45.32.31.78.46,1.38.46.32,0,.6-.05.85-.16.26-.11.46-.28.62-.52.15-.24.23-.54.23-.9,0-.33-.06-.62-.19-.87-.12-.25-.31-.48-.59-.7-.28-.22-.66-.45-1.14-.7-.43-.21-.81-.43-1.16-.65-.34-.23-.63-.47-.87-.74-.24-.28-.42-.57-.55-.89-.13-.33-.19-.69-.19-1.11,0-.66.16-1.22.49-1.68.33-.46.8-.81,1.42-1.06.63-.24,1.35-.36,2.17-.36.48,0,.93.02,1.37.08.43.05.93.14,1.5.28v2.35h-1.11c-.1-.43-.23-.77-.39-1.02-.16-.25-.36-.43-.6-.55-.24-.12-.53-.18-.89-.18-.31,0-.59.06-.83.16-.24.1-.44.26-.58.48-.14.21-.2.46-.2.77s.06.58.18.82c.13.23.33.45.62.67.28.22.7.47,1.24.75.66.35,1.18.68,1.56,1.02.38.33.67.69.84,1.08.18.39.28.84.28,1.36,0,.66-.16,1.24-.46,1.73-.3.49-.75.86-1.34,1.12-.59.26-1.27.39-2.04.39-.55,0-1.12-.03-1.72-.1-.6-.06-1.15-.14-1.67-.26v-2.49h1.11Z"
     id="path48" />
  <path
     d="m87.57,63.65c0,1.15.13,2.01.38,2.58.26.56.65.84,1.17.84.28,0,.52-.07.72-.21.19-.14.35-.35.46-.63.12-.28.2-.61.24-.99.05-.38.08-.82.08-1.29,0-1.16-.13-2.03-.39-2.6-.25-.58-.63-.87-1.13-.87-.37,0-.66.12-.88.35-.22.24-.38.58-.49,1.04-.1.46-.15,1.06-.15,1.78Zm1.42,4.26c-.79,0-1.47-.14-2.05-.41-.57-.28-1.02-.72-1.34-1.33-.32-.61-.48-1.39-.48-2.34,0-.72.09-1.34.29-1.87.2-.53.48-.96.83-1.31.36-.34.78-.6,1.28-.77.49-.17,1.03-.25,1.61-.25,1.31,0,2.29.35,2.95,1.03.66.69.99,1.7.99,3.03,0,.94-.17,1.73-.5,2.36-.33.63-.8,1.1-1.41,1.41-.6.3-1.33.45-2.17.45Z"
     id="path50" />
  <path
     d="m97.52,65.45c0,.51.02.86.05,1.06.03.19.1.35.2.46.1.12.28.21.55.29v.53h-3.96v-.53c.16-.04.28-.09.38-.14.09-.05.16-.11.21-.18.05-.07.09-.15.13-.25.04-.11.07-.25.08-.44.02-.19.02-.46.02-.8v-6.31c0-.46,0-.8-.01-1.02,0-.22-.03-.4-.05-.55-.02-.15-.07-.27-.13-.35-.05-.09-.13-.16-.24-.21-.1-.06-.26-.11-.49-.15v-.54l2.25-.11h1.01v9.25Z"
     id="path52" />
  <path
     d="m99.42,59.77h3.15v4.49c0,.52.01.93.04,1.22.03.29.09.51.19.69.09.17.2.29.34.36.13.08.3.11.5.11s.41-.06.63-.18c.23-.13.41-.3.57-.53.15-.23.23-.46.23-.72v-3.12c0-.39,0-.69-.03-.88,0-.19-.04-.34-.09-.45-.04-.11-.11-.19-.21-.26-.1-.08-.26-.14-.48-.21v-.53h3.15v5.65c0,.41,0,.71.01.9.02.18.05.34.1.45.05.11.13.2.24.28.11.07.29.13.54.19v.54l-2.2.07h-.98l.07-1.17-.1-.02c-.5.47-.95.8-1.34.98-.4.18-.79.26-1.18.26-.58,0-1.04-.11-1.38-.31-.34-.22-.58-.53-.73-.94-.15-.41-.23-.94-.23-1.6v-2.95c0-.3,0-.53-.01-.69,0-.17-.02-.29-.04-.38-.02-.09-.04-.18-.08-.25-.02-.07-.07-.14-.13-.2-.05-.06-.12-.11-.21-.15-.08-.05-.2-.09-.35-.14v-.53Z"
     id="path54" />
  <path
     d="m115.03,66.82c-.48.4-.91.69-1.31.85-.39.16-.79.24-1.22.24-.8,0-1.41-.21-1.81-.64-.4-.43-.59-1.09-.59-1.97v-4.52h-1.01v-.55c.33-.06.57-.14.72-.25.16-.11.28-.25.36-.43.09-.18.16-.42.21-.7.05-.29.09-.66.11-1.09h1.93v2.02h2.31v1.01h-2.31v3.64c0,.61.03,1.06.09,1.36.06.3.15.51.29.64.13.14.3.2.5.2.15,0,.28-.01.4-.04.12-.03.24-.07.38-.14.13-.08.27-.18.41-.3l.51.68Z"
     id="path56" />
  <path
     d="m115.54,67.26c.26-.07.44-.17.54-.28.1-.12.17-.27.2-.47.03-.19.05-.54.05-1.06v-3.77c0-.26-.01-.47-.04-.63-.02-.17-.06-.3-.13-.39-.07-.1-.16-.18-.28-.23-.12-.05-.27-.09-.45-.14v-.54l2.22-.08h1.01v5.75c0,.3,0,.54.01.7,0,.16.02.29.04.38.02.09.04.17.06.24.03.07.08.13.13.19.05.06.12.11.21.16.09.05.21.1.36.14v.53h-3.95v-.53Zm3.07-10.72v1.97h-2.21v-1.97h2.21Z"
     id="path58" />
  <path
     d="m123.25,63.65c0,1.15.13,2.01.38,2.58.26.56.65.84,1.17.84.28,0,.52-.07.72-.21.19-.14.35-.35.47-.63.12-.28.19-.61.24-.99.05-.38.07-.82.07-1.29,0-1.16-.13-2.03-.39-2.6-.25-.58-.63-.87-1.13-.87-.37,0-.66.12-.88.35-.22.24-.38.58-.49,1.04-.1.46-.15,1.06-.15,1.78Zm1.42,4.26c-.79,0-1.47-.14-2.05-.41-.57-.28-1.02-.72-1.34-1.33-.32-.61-.48-1.39-.48-2.34,0-.72.09-1.34.29-1.87.2-.53.48-.96.83-1.31.36-.34.78-.6,1.28-.77.49-.17,1.03-.25,1.61-.25,1.31,0,2.29.35,2.95,1.03.66.69.99,1.7.99,3.03,0,.94-.17,1.73-.5,2.36-.33.63-.8,1.1-1.41,1.41-.6.3-1.33.45-2.17.45Z"
     id="path60" />
  <path
     d="m138.97,67.78h-3.92v-.53c.24-.07.41-.15.51-.26.1-.12.17-.27.2-.46.03-.2.05-.56.05-1.07v-2.16c0-.38,0-.7-.02-.94-.02-.24-.04-.44-.08-.6-.03-.16-.09-.29-.15-.39-.06-.11-.13-.19-.2-.26-.07-.07-.16-.12-.26-.15-.09-.03-.21-.05-.36-.05-.21,0-.43.07-.65.2-.22.13-.4.3-.55.53-.15.22-.23.45-.23.7v3.12c0,.51.02.87.05,1.07.03.2.1.36.2.48.1.11.28.2.53.26v.53h-3.91v-.53c.26-.07.44-.17.54-.28.1-.12.17-.27.2-.47.03-.19.05-.54.05-1.06v-3.33c0-.39,0-.68-.03-.88,0-.19-.04-.35-.09-.47-.05-.12-.13-.21-.24-.28-.1-.08-.28-.14-.54-.2v-.54l2.21-.08h1.02l-.11,1.17.09.02c.33-.29.63-.52.88-.69.26-.18.53-.31.8-.41.28-.1.57-.15.88-.15.44,0,.81.07,1.09.2.29.13.53.31.7.55.18.24.31.53.39.88.08.35.13.76.13,1.22v2.97c0,.24,0,.46.01.67,0,.21.03.38.06.5.03.12.08.22.13.3.06.08.14.14.24.2.11.05.23.1.38.14v.53Z"
     id="path62" />
  <path
     d="m141.22,65.6c.13.5.34.86.62,1.11.28.24.66.36,1.13.36.4,0,.71-.09.92-.26.21-.18.31-.45.31-.8,0-.23-.05-.41-.15-.57-.09-.16-.25-.31-.46-.45-.22-.14-.59-.33-1.12-.57-.3-.13-.58-.26-.84-.41-.26-.16-.49-.33-.68-.53-.19-.2-.35-.42-.46-.67-.11-.24-.16-.52-.16-.82,0-.48.14-.9.41-1.26.28-.36.69-.63,1.21-.82.52-.19,1.11-.29,1.78-.29.39,0,.78.02,1.16.05.38.03.86.11,1.46.21v1.89h-1.07c-.13-.34-.26-.61-.41-.79-.14-.19-.31-.33-.49-.4-.18-.07-.39-.11-.63-.11-.36,0-.65.08-.85.25-.21.16-.31.39-.31.68,0,.2.04.38.11.53.08.14.21.29.4.43.2.13.58.31,1.13.54.5.21.91.43,1.23.67.32.23.56.49.73.79.17.3.25.65.25,1.04,0,.44-.08.81-.24,1.13-.16.32-.39.58-.68.78-.3.2-.65.35-1.06.45-.4.1-.85.15-1.34.15-.89,0-1.88-.13-2.97-.38v-1.93h1.08Z"
     id="path64" />
</svg>
