<svg viewBox="0 0 400 400" xmlns="http://www.w3.org/2000/svg">
    <defs>
      <!-- Glow effects -->
      <filter id="glow" x="-50%" y="-50%" width="200%" height="200%">
        <feGaussianBlur stdDeviation="4" result="coloredBlur"/>
        <feMerge>
          <feMergeNode in="coloredBlur"/>
          <feMergeNode in="SourceGraphic"/>
        </feMerge>
      </filter>
      
      <filter id="sparkle" x="-100%" y="-100%" width="300%" height="300%">
        <feGaussianBlur stdDeviation="2" result="coloredBlur"/>
        <feMerge>
          <feMergeNode in="coloredBlur"/>
          <feMergeNode in="SourceGraphic"/>
        </feMerge>
      </filter>
    </defs>
    
    <!-- Background sparkles -->
    <g opacity="0.6" filter="url(#sparkle)">
      <path d="M80 100 L85 105 L90 100 L85 95 Z" fill="#86e9ea"/>
      <path d="M320 120 L325 125 L330 120 L325 115 Z" fill="#ee96e2"/>
      <circle cx="60" cy="180" r="2" fill="#9385d0"/>
      <circle cx="340" cy="170" r="2" fill="#86e9ea"/>
      <path d="M70 250 L75 255 L80 250 L75 245 Z" fill="#ee96e2"/>
      <path d="M320 260 L325 265 L330 260 L325 255 Z" fill="#9385d0"/>
      <circle cx="50" cy="300" r="1.5" fill="#86e9ea"/>
      <circle cx="350" cy="280" r="1.5" fill="#ee96e2"/>
    </g>
    
    <!-- Crown base band -->
    <g filter="url(#glow)">
      <rect x="60" y="280" width="280" height="35" 
            fill="#86e9ea" 
            stroke="#9385d0" 
            stroke-width="2" 
            rx="4"/>
      
      <!-- Base band decoration -->
      <rect x="65" y="285" width="270" height="25" 
            fill="none" 
            stroke="#9385d0" 
            stroke-width="1" 
            rx="2"/>
    </g>
    
    <!-- Main crown structure - connected -->
    <g filter="url(#glow)">
      <!-- Single connected crown shape -->
      <path d="M80 280 
               L110 280 
               L120 160 
               L105 140 
               L120 160
               L135 200
               L150 180
               L165 200
               L190 140
               L200 120
               L210 140
               L235 200
               L250 180
               L265 200
               L290 160
               L305 140
               L310 160
               L320 280
               L80 280 Z" 
            fill="#86e9ea" 
            stroke="#9385d0" 
            stroke-width="2"
            opacity="0.9"/>
    </g>
    
    <!-- Connecting arches between peaks -->
    <g filter="url(#glow)" opacity="0.7">
      <!-- Arch connections -->
      <path d="M120 160 Q127 180 135 200" 
            fill="none" 
            stroke="#9385d0" 
            stroke-width="3"/>
      <path d="M165 200 Q175 170 190 140" 
            fill="none" 
            stroke="#9385d0" 
            stroke-width="3"/>
      <path d="M210 140 Q225 170 235 200" 
            fill="none" 
            stroke="#9385d0" 
            stroke-width="3"/>
      <path d="M265 200 Q275 180 290 160" 
            fill="none" 
            stroke="#9385d0" 
            stroke-width="3"/>
    </g>
    
    <!-- Structural details -->
    <g filter="url(#glow)" opacity="0.8">
      <!-- Vertical reinforcement lines -->
      <rect x="103" y="160" width="2" height="120" fill="#9385d0"/>
      <rect x="148" y="200" width="2" height="80" fill="#9385d0"/>
      <rect x="198" y="140" width="2" height="140" fill="#9385d0"/>
      <rect x="248" y="200" width="2" height="80" fill="#9385d0"/>
      <rect x="298" y="160" width="2" height="120" fill="#9385d0"/>
      
      <!-- Horizontal bands -->
      <rect x="70" y="260" width="260" height="2" fill="#9385d0"/>
      <rect x="80" y="240" width="240" height="1" fill="#86e9ea" opacity="0.6"/>
    </g>
    
    <!-- Gemstones -->
    <g filter="url(#glow)">
      <!-- Large center crown jewel -->
      <circle cx="200" cy="130" r="14" fill="#ee96e2" opacity="0.9"/>
      <circle cx="200" cy="130" r="10" fill="#9385d0"/>
      <circle cx="200" cy="130" r="6" fill="#ee96e2"/>
      
      <!-- Side peak gems -->
      <circle cx="105" cy="150" r="10" fill="#86e9ea" opacity="0.8"/>
      <circle cx="105" cy="150" r="6" fill="#9385d0"/>
      
      <circle cx="150" cy="190" r="8" fill="#ee96e2" opacity="0.8"/>
      <circle cx="150" cy="190" r="5" fill="#86e9ea"/>
      
      <circle cx="250" cy="190" r="8" fill="#ee96e2" opacity="0.8"/>
      <circle cx="250" cy="190" r="5" fill="#86e9ea"/>
      
      <circle cx="300" cy="150" r="10" fill="#86e9ea" opacity="0.8"/>
      <circle cx="300" cy="150" r="6" fill="#9385d0"/>
      
      <!-- Base band gemstones -->
      <circle cx="90" cy="297" r="6" fill="#ee96e2"/>
      <circle cx="120" cy="297" r="5" fill="#9385d0"/>
      <circle cx="150" cy="297" r="6" fill="#86e9ea"/>
      <circle cx="180" cy="297" r="5" fill="#ee96e2"/>
      <circle cx="220" cy="297" r="5" fill="#ee96e2"/>
      <circle cx="250" cy="297" r="6" fill="#86e9ea"/>
      <circle cx="280" cy="297" r="5" fill="#9385d0"/>
      <circle cx="310" cy="297" r="6" fill="#ee96e2"/>
    </g>
    
    <!-- Additional cosmic sparkles -->
    <g opacity="0.7" filter="url(#sparkle)">
      <path d="M120 100 L127 107 L120 114 L113 107 Z" fill="#86e9ea"/>
      <path d="M280 110 L287 117 L280 124 L273 117 Z" fill="#ee96e2"/>
      <circle cx="90" cy="200" r="1.5" fill="#9385d0"/>
      <circle cx="310" cy="190" r="1.5" fill="#86e9ea"/>
      <path d="M360 220 L365 225 L360 230 L355 225 Z" fill="#ee96e2"/>
      <path d="M40 210 L45 215 L40 220 L35 215 Z" fill="#9385d0"/>
    </g>
  </svg>